<?xml version="1.0" encoding="UTF-8" standalone="no"?>
<!-- Created with Inkscape (http://www.inkscape.org/) -->

<svg
   xmlns:dc="http://purl.org/dc/elements/1.1/"
   xmlns:cc="http://creativecommons.org/ns#"
   xmlns:rdf="http://www.w3.org/1999/02/22-rdf-syntax-ns#"
   xmlns:svg="http://www.w3.org/2000/svg"
   xmlns="http://www.w3.org/2000/svg"
   xmlns:sodipodi="http://sodipodi.sourceforge.net/DTD/sodipodi-0.dtd"
   xmlns:inkscape="http://www.inkscape.org/namespaces/inkscape"
   width="920"
   height="383.36606"
   id="svg2"
   sodipodi:version="0.32"
   inkscape:version="0.48.1 "
   sodipodi:docname="PID.svg"
   inkscape:output_extension="org.inkscape.output.svg.inkscape"
   version="1.0">
  <defs
     id="defs4">
    <linearGradient
       id="linearGradient3262">
      <stop
         style="stop-color:#ffffff;stop-opacity:1;"
         offset="0"
         id="stop3264" />
      <stop
         style="stop-color:#ffffff;stop-opacity:0;"
         offset="1"
         id="stop3266" />
    </linearGradient>
    <marker
       inkscape:stockid="Arrow2Lend"
       orient="auto"
       refY="0"
       refX="0"
       id="Arrow2Lend"
       style="overflow:visible">
      <path
         id="path4339"
         style="font-size:12px;fill-rule:evenodd;stroke-width:0.625;stroke-linejoin:round"
         d="M 8.7185878,4.0337352 L -2.2072895,0.016013256 L 8.7185884,-4.0017078 C 6.97309,-1.6296469 6.9831476,1.6157441 8.7185878,4.0337352 z"
         transform="matrix(-1.1,0,0,-1.1,-1.1,0)" />
    </marker>
    <inkscape:perspective
       sodipodi:type="inkscape:persp3d"
       inkscape:vp_x="0 : 526.18109 : 1"
       inkscape:vp_y="0 : 1000 : 0"
       inkscape:vp_z="744.09448 : 526.18109 : 1"
       inkscape:persp3d-origin="372.04724 : 350.78739 : 1"
       id="perspective10" />
  </defs>
  <sodipodi:namedview
     id="base"
     pagecolor="#ffffff"
     bordercolor="#666666"
     borderopacity="1.0"
     inkscape:pageopacity="0.0"
     inkscape:pageshadow="2"
     inkscape:zoom="0.5"
     inkscape:cx="902.79091"
     inkscape:cy="165.49133"
     inkscape:document-units="px"
     inkscape:current-layer="layer1"
     showgrid="false"
     inkscape:window-width="1119"
     inkscape:window-height="775"
     inkscape:window-x="2206"
     inkscape:window-y="156"
     showguides="true"
     inkscape:guide-bbox="true"
     inkscape:snap-global="false"
     inkscape:window-maximized="0">
    <inkscape:grid
       type="xygrid"
       id="grid6125"
       visible="true"
       enabled="true" />
    <sodipodi:guide
       orientation="0,1"
       position="657.96126,694.20148"
       id="guide6171" />
    <sodipodi:guide
       orientation="1,0"
       position="862,1092"
       id="guide3526" />
  </sodipodi:namedview>
  <metadata
     id="metadata7">
    <rdf:RDF>
      <cc:Work
         rdf:about="">
        <dc:format>image/svg+xml</dc:format>
        <dc:type
           rdf:resource="http://purl.org/dc/dcmitype/StillImage" />
      </cc:Work>
    </rdf:RDF>
  </metadata>
  <g
     inkscape:groupmode="layer"
     id="layer2"
     inkscape:label="2"
     transform="translate(-141.46852,-409.63668)" />
  <g
     inkscape:label="Capa 1"
     inkscape:groupmode="layer"
     id="layer1"
     transform="translate(-141.46852,-409.63668)">
    <path
       sodipodi:type="arc"
       style="fill:#000000;fill-opacity:1;stroke:#000000;stroke-width:9.51715279;stroke-linecap:round;stroke-linejoin:round;stroke-miterlimit:4;stroke-opacity:1;stroke-dasharray:none;stroke-dashoffset:0"
       id="path2434"
       sodipodi:cx="217.44653"
       sodipodi:cy="268.04639"
       sodipodi:rx="100.55331"
       sodipodi:ry="100.55331"
       d="m 317.99984,268.04639 c 0,55.53405 -45.01925,100.5533 -100.55331,100.5533 -55.53405,0 -100.5533,-45.01925 -100.5533,-100.5533 0,-55.53406 45.01925,-100.55331 100.5533,-100.55331 55.53406,0 100.55331,45.01925 100.55331,100.55331 z"
       transform="matrix(0.34961644,0,0,0.34932201,208.14506,481.44478)" />
    <path
       sodipodi:type="arc"
       style="fill:#ffdd55;fill-opacity:1;stroke:#000000;stroke-width:9.51715279;stroke-linecap:round;stroke-linejoin:round;stroke-miterlimit:4;stroke-opacity:1;stroke-dasharray:none;stroke-dashoffset:0"
       id="path2432"
       sodipodi:cx="217.44653"
       sodipodi:cy="268.04639"
       sodipodi:rx="100.55331"
       sodipodi:ry="100.55331"
       d="m 317.99984,268.04639 c 0,55.53405 -45.01925,100.5533 -100.55331,100.5533 -55.53405,0 -100.5533,-45.01925 -100.5533,-100.5533 0,-55.53406 45.01925,-100.55331 100.5533,-100.55331 55.53406,0 100.55331,45.01925 100.55331,100.55331 z"
       transform="matrix(0.34961644,0,0,0.34932201,206.08882,479.76859)" />
    <path
       style="font-size:56px;font-style:normal;font-variant:normal;font-weight:normal;font-stretch:normal;text-align:start;line-height:100%;writing-mode:lr-tb;text-anchor:start;fill:#000000;fill-opacity:1;stroke:none;stroke-width:1px;stroke-linecap:butt;stroke-linejoin:miter;stroke-opacity:1;font-family:Verdana;-inkscape-font-specification:Verdana"
       d="M 285.93409,572.84636 C 285.97285,572.92386 285.95992,573.00137 285.8953,573.07885 L 273.54345,587.88084 L 290.62662,587.88084 C 290.67831,587.88084 290.72355,587.86792 290.76236,587.8421 C 290.80111,587.81625 290.82051,587.7775 290.82053,587.72584 L 291.7319,583.71536 C 291.73186,583.68953 291.75126,583.65724 291.79006,583.61849 C 291.82882,583.57974 291.88699,583.56037 291.96458,583.56037 L 293.12802,583.56037 C 293.28312,583.56037 293.36068,583.62495 293.36071,583.75411 L 293.36071,590.69013 C 293.36068,590.83219 293.28312,590.90323 293.12802,590.90324 L 269.45201,590.90324 C 269.32275,590.90323 269.25811,590.83219 269.25811,590.69013 L 269.25811,589.89577 C 269.25811,589.84411 269.27103,589.80536 269.29689,589.77952 L 282.21107,574.26068 C 282.26277,574.18321 282.26277,574.1057 282.21107,574.0282 L 269.93678,557.40502 C 269.93678,557.3792 269.93032,557.35984 269.9174,557.34689 C 269.90446,557.334 269.898,557.31462 269.898,557.28876 L 269.898,556.45567 C 269.898,556.32653 269.96263,556.26195 270.09191,556.26193 L 292.25544,556.26193 C 292.41054,556.26195 292.4881,556.32653 292.48812,556.45567 L 292.48812,562.67483 C 292.4881,562.81693 292.41054,562.88797 292.25544,562.88795 L 291.16956,562.88795 C 291.09197,562.88797 291.0338,562.87505 290.99505,562.8492 C 290.95624,562.82339 290.93685,562.78465 290.93687,562.73296 L 289.75404,558.23811 C 289.75402,558.18647 289.73463,558.14772 289.69587,558.12185 C 289.65707,558.09605 289.62475,558.08314 289.59892,558.08312 L 274.97836,558.08312 L 285.93409,572.84636 L 285.93409,572.84636 z"
       id="text2425" />
    <text
       xml:space="preserve"
       style="font-size:56px;font-style:normal;font-variant:normal;font-weight:normal;font-stretch:normal;text-align:start;line-height:100%;writing-mode:lr-tb;text-anchor:start;fill:#000000;fill-opacity:1;stroke:none;stroke-width:1px;stroke-linecap:butt;stroke-linejoin:miter;stroke-opacity:1;font-family:Verdana;-inkscape-font-specification:Verdana"
       x="-115.60039"
       y="316.05032"
       id="text3836"
       sodipodi:linespacing="100%"><tspan
         sodipodi:role="line"
         id="tspan3838"
         x="-115.60039"
         y="316.05032"
         style="font-size:56px;font-style:normal;font-variant:normal;font-weight:normal;font-stretch:normal;text-align:start;line-height:100%;writing-mode:lr-tb;text-anchor:start;font-family:Courier New;-inkscape-font-specification:Courier New" /></text>
    <path
       inkscape:connector-curvature="0"
       id="path6123"
       d="m 406.6035,463.0368 0,2.05496 c 24.5668,-1e-5 36.84355,0 42.98525,0 3.07085,0 4.60896,0 5.37667,0 0.38386,0 0.57964,0 0.67561,0 0.048,0 0.0724,0 0.0844,0 l 0,-1.04156 0,-1.0134 c 0,0 0.0116,-1e-5 -49.12197,0 z"
       style="fill:#000000;fill-opacity:1;fill-rule:evenodd;stroke:none" />
    <path
       inkscape:connector-curvature="0"
       id="path8181"
       style="font-size:12px;fill-rule:evenodd;stroke-width:0.625;stroke-linejoin:round"
       d="m 433.57728,454.86677 24.90044,9.15652 -24.90044,9.15653 c 3.97805,-5.40601 3.95512,-12.80237 0,-18.31305 z" />
    <path
       inkscape:connector-curvature="0"
       id="path6157"
       d="m 781.00023,572.4845 0,2.0831 c 18.52498,0 27.80095,0 32.4322,0 2.31562,0 3.46147,0 4.04038,0 0.28946,0 0.44634,0 0.5187,0 0.0362,0 0.0455,0 0.0546,0 0.004,0 0.0262,0 0.0272,0 l 0,-1.04155 0,-1.04155 c 0,0 -0.0232,-10e-6 -37.07317,0 z"
       style="fill:#000000;fill-opacity:1;fill-rule:evenodd;stroke:none" />
    <path
       inkscape:connector-curvature="0"
       id="path8175"
       style="font-size:12px;fill-rule:evenodd;stroke-width:0.625;stroke-linejoin:round"
       d="m 796.58146,564.33489 24.14832,9.15653 -24.14832,9.15652 c 3.85789,-5.406 3.83567,-12.80236 0,-18.31305 z" />
    <path
       style="fill:#000000;fill-opacity:1;fill-rule:evenodd;stroke:none;stroke-width:2.29999995;stroke-linecap:butt;stroke-linejoin:miter;stroke-miterlimit:4;stroke-dasharray:none;stroke-opacity:1"
       d="M 318.91584,572.00592 C 318.91584,572.00592 318.91584,573.04747 318.91584,573.04747 L 318.91584,574.08903 C 318.91584,574.08903 318.92453,574.089 407.58874,574.08903 L 407.58874,572.00592 C 363.25664,572.00591 341.09001,572.00592 330.00699,572.00592 C 324.46548,572.00592 321.70873,572.00592 320.32335,572.00592 C 319.63065,572.00592 319.25791,572.00592 319.08474,572.00592 C 318.99815,572.00592 318.96564,572.00592 318.94399,572.00592 C 318.93316,572.00592 318.91854,572.00592 318.91584,572.00592 z"
       id="path7235" />
    <path
       style="font-size:28px;font-style:normal;font-weight:normal;fill:#000000;fill-opacity:1;stroke:none;stroke-width:1px;stroke-linecap:butt;stroke-linejoin:miter;stroke-opacity:1;font-family:Bitstream Vera Sans"
       d="M 233.44849,602.52051 L 233.44849,595.9006 L 226.87243,595.9006 L 226.87243,593.13407 L 233.44849,593.13407 L 233.44849,586.56355 L 236.25031,586.56355 L 236.25031,593.13407 L 242.82636,593.13407 L 242.82636,595.9006 L 236.25031,595.9006 L 236.25031,602.52051 L 233.44849,602.52051 z"
       id="text7231" />
    <path
       inkscape:connector-curvature="0"
       id="path2446"
       d="m 143.62501,571.69629 0,2.05496 c 50.85149,10e-6 76.26968,0 88.98255,0 6.35643,0 9.53019,0 11.1193,0 0.79456,0 1.20887,0 1.40751,0 0.0993,0 0.14407,0 0.1689,0 0.0124,0 0.025,0 0.0281,0 l 0,-1.0134 0,-1.04156 c 0,0 -0.004,2e-5 -101.70641,0 z"
       style="fill:#000000;fill-opacity:1;fill-rule:evenodd;stroke:none" />
    <path
       inkscape:connector-curvature="0"
       id="path8167"
       style="font-size:12px;fill-rule:evenodd;stroke-width:0.625;stroke-linejoin:round"
       d="m 223.17315,563.53324 24.90044,9.15653 -24.90045,9.15652 c 3.97805,-5.406 3.95514,-12.80236 1e-5,-18.31305 z" />
    <path
       style="font-size:56px;font-style:normal;font-variant:normal;font-weight:normal;font-stretch:normal;text-align:start;line-height:100%;writing-mode:lr-tb;text-anchor:start;fill:#000000;fill-opacity:1;stroke:none;stroke-width:1px;stroke-linecap:butt;stroke-linejoin:miter;stroke-opacity:1;font-family:Verdana;-inkscape-font-specification:Verdana"
       d="M 164.1122,555.75468 C 164.1122,555.41578 164.14213,555.08685 164.20199,554.76787 L 165.39915,547.66577 C 165.40911,547.60597 165.41659,547.55115 165.42158,547.5013 C 165.42657,547.45147 165.42906,547.38169 165.42907,547.29197 C 165.42906,546.8833 165.22455,546.62413 164.81553,546.51448 C 164.4065,546.40485 163.8977,546.35002 163.28916,546.35001 L 163.43881,545.33329 L 167.62883,545.00435 L 167.97301,545.00435 C 167.9331,545.20372 167.91315,545.3034 167.91315,545.30339 L 166.31197,554.82767 C 166.31196,554.96723 166.28203,555.22639 166.22218,555.60517 C 166.16232,555.98395 166.13238,556.26803 166.13239,556.45743 C 166.13238,557.10533 166.3369,557.53645 166.74593,557.75075 C 167.15496,557.96506 167.71862,558.07222 168.43691,558.07222 C 169.17515,558.07222 169.84854,557.85043 170.45711,557.40686 C 171.06564,556.96329 171.56695,556.38765 171.96103,555.67993 C 172.35507,554.97221 172.61696,554.24954 172.74665,553.51192 L 173.73431,547.66577 C 173.74427,547.60597 173.75174,547.55115 173.75675,547.5013 C 173.76172,547.45147 173.76422,547.38169 173.76424,547.29197 C 173.76422,546.8833 173.5597,546.62413 173.15069,546.51448 C 172.74165,546.40485 172.23286,546.35002 171.62432,546.35001 L 171.77397,545.33329 L 175.964,545.00435 L 176.30818,545.00435 C 176.26827,545.20372 176.24831,545.3034 176.24832,545.30339 L 174.43762,556.17333 C 174.41766,556.26305 174.40769,556.38765 174.40771,556.54713 C 174.40769,556.95582 174.6097,557.21498 175.01376,557.32462 C 175.41778,557.43427 175.92907,557.48909 176.54761,557.48909 L 176.36804,558.50582 L 171.92361,558.80485 C 171.9635,558.60549 171.98346,558.50582 171.98347,558.50582 L 172.35759,556.26305 C 171.84878,557.03058 171.23274,557.64609 170.50948,558.10959 C 169.7862,558.5731 169.01053,558.80485 168.18251,558.80485 C 166.95543,558.80485 165.97027,558.58306 165.22706,558.1395 C 164.48381,557.69593 164.1122,556.90099 164.1122,555.75468 L 164.1122,555.75468 z M 185.13717,566.13123 C 183.68063,564.79552 182.61067,563.16081 181.92731,561.22704 C 181.24393,559.29328 180.90224,557.22495 180.90224,555.02205 C 180.90224,553.17801 181.10177,551.33394 181.50082,549.48989 C 181.89987,547.64584 182.48847,545.86409 183.26662,544.14463 C 184.04476,542.42519 185.01745,540.83032 186.18469,539.36005 C 187.3519,537.88981 188.67874,536.63636 190.1652,535.59967 C 190.2051,535.55983 190.25499,535.53989 190.31485,535.53987 L 190.61415,535.53987 C 190.76377,535.53989 190.8386,535.61963 190.83861,535.7791 C 190.8386,535.87879 190.80368,535.94359 190.73385,535.97347 C 189.37708,537.09986 188.18491,538.43306 187.15737,539.97307 C 186.1298,541.51312 185.27932,543.18024 184.60594,544.97445 C 183.93253,546.76868 183.42873,548.59778 183.09453,550.46176 C 182.76032,552.32575 182.59322,554.15984 182.59322,555.96401 C 182.59322,560.15052 183.63573,563.41499 185.72078,565.75743 C 185.78063,565.81723 185.81055,565.88202 185.81056,565.9518 C 185.81055,566.11129 185.73573,566.19102 185.5861,566.19104 L 185.28682,566.19104 C 185.22694,566.19102 185.17706,566.17109 185.13717,566.13123 L 185.13717,566.13123 z M 192.36498,555.69488 C 192.36498,555.2862 192.38493,554.9772 192.42483,554.76787 L 193.83149,546.3201 L 191.28754,546.3201 L 191.40726,545.58747 C 192.30511,545.58749 193.09574,545.28346 193.77911,544.67541 C 194.46248,544.06739 195.00619,543.3198 195.41023,542.43265 C 195.81426,541.54552 196.10606,540.6235 196.28564,539.66656 L 197.07876,539.66656 L 196.136,545.30339 L 200.38589,545.30339 L 200.20631,546.3201 L 195.97139,546.3201 L 194.53482,554.85757 C 194.4949,555.09681 194.455,555.47559 194.4151,555.99392 C 194.41509,556.55212 194.5373,557.02809 194.78173,557.42181 C 195.02613,557.81554 195.41272,558.0124 195.94147,558.0124 C 196.55998,558.0124 197.11366,557.69842 197.60251,557.07044 C 197.82198,556.76144 197.97412,556.50726 198.05893,556.3079 C 198.14372,556.10855 198.22602,555.84938 198.30584,555.53041 C 198.38564,555.21144 198.46545,554.94729 198.54527,554.73796 L 198.8296,552.9587 L 199.6227,552.9587 L 199.32342,554.82767 C 199.23363,555.43572 199.02413,556.05372 198.69491,556.6817 C 198.36569,557.30968 197.94668,557.82053 197.43791,558.21426 C 196.92911,558.60799 196.36047,558.80485 195.73197,558.80485 C 194.69443,558.80485 193.87389,558.53821 193.27032,558.00493 C 192.66675,557.47165 192.36498,556.70163 192.36498,555.69488 L 192.36498,555.69488 z M 201.02936,566.19104 C 200.88969,566.19102 200.81985,566.11129 200.81985,565.9518 C 200.81985,565.84216 200.8398,565.77736 200.87971,565.75743 C 202.25643,564.62109 203.46356,563.27045 204.50109,561.70549 C 205.53861,560.14055 206.3891,558.47841 207.05252,556.71908 C 207.71593,554.95975 208.21225,553.15557 208.54148,551.30653 C 208.87069,549.4575 209.0353,547.61096 209.0353,545.76689 C 209.0353,544.58073 208.93553,543.39954 208.73602,542.22332 C 208.53648,541.04713 208.20227,539.92326 207.73341,538.85169 C 207.26451,537.78017 206.65596,536.82076 205.90775,535.97347 C 205.86783,535.89376 205.84788,535.82896 205.84789,535.7791 C 205.84788,535.61963 205.91772,535.53989 206.05739,535.53987 L 206.35668,535.53987 C 206.40656,535.53989 206.45144,535.55983 206.49136,535.59967 C 207.46902,536.50678 208.2746,537.55838 208.90811,538.7545 C 209.54159,539.95067 210.0005,541.21658 210.28483,542.55226 C 210.56915,543.88797 210.7113,545.27849 210.71131,546.72381 C 210.7113,549.18589 210.35715,551.64295 209.64885,554.09503 C 208.94052,556.54713 207.89052,558.8198 206.49884,560.91306 C 205.10715,563.0063 203.42864,564.74569 201.46332,566.13123 C 201.42342,566.17109 201.37852,566.19102 201.32863,566.19104 L 201.02936,566.19104 z"
       id="text2468" />
    <path
       style="fill:#000000;fill-opacity:1;fill-rule:evenodd;stroke:none;stroke-width:2.29999995;stroke-linecap:butt;stroke-linejoin:miter;stroke-miterlimit:4;stroke-dasharray:none;stroke-opacity:1"
       d="M 281.50432,776.88254 L 281.50432,778.9375 C 281.50432,778.9375 281.50884,778.93749 998.6288,778.9375 L 998.6288,776.88254 C 640.06882,776.88254 460.77432,776.88254 371.13432,776.88254 C 326.31432,776.88254 303.91307,776.88254 292.70807,776.88254 C 287.10557,776.88254 284.31245,776.88254 282.91183,776.88254 C 282.21152,776.88254 281.8483,776.88254 281.67322,776.88254 C 281.58568,776.88254 281.55435,776.88254 281.53247,776.88254 C 281.52153,776.88254 281.50706,776.88254 281.50432,776.88254 z"
       id="path2608" />
    <path
       style="font-size:28px;font-style:normal;font-weight:normal;fill:#000000;fill-opacity:1;stroke:none;stroke-width:1px;stroke-linecap:butt;stroke-linejoin:miter;stroke-opacity:1;font-family:Bitstream Vera Sans"
       d="M 697.61613,561.76771 L 697.61613,555.1478 L 691.04008,555.1478 L 691.04008,552.38127 L 697.61613,552.38127 L 697.61613,545.81075 L 700.41795,545.81075 L 700.41795,552.38127 L 706.994,552.38127 L 706.994,555.1478 L 700.41795,555.1478 L 700.41795,561.76771 L 697.61613,561.76771 z"
       id="text2628" />
    <path
       style="font-size:28px;font-style:normal;font-weight:normal;fill:#000000;fill-opacity:1;stroke:none;stroke-width:1px;stroke-linecap:butt;stroke-linejoin:miter;stroke-opacity:1;font-family:Bitstream Vera Sans"
       d="M 724.1918,630.08962 L 724.1918,623.46971 L 717.61576,623.46971 L 717.61576,620.70318 L 724.1918,620.70318 L 724.1918,614.13267 L 726.99363,614.13267 L 726.99363,620.70318 L 733.56968,620.70318 L 733.56968,623.46971 L 726.99363,623.46971 L 726.99363,630.08962 L 724.1918,630.08962 z"
       id="text2632" />
    <path
       style="font-size:56px;font-style:normal;font-variant:normal;font-weight:normal;font-stretch:normal;text-align:start;line-height:100%;writing-mode:lr-tb;text-anchor:start;fill:#000000;fill-opacity:1;stroke:none;stroke-width:1px;stroke-linecap:butt;stroke-linejoin:miter;stroke-opacity:1;font-family:Verdana;-inkscape-font-specification:Verdana"
       d="M 972.94215,564.57637 C 973.28553,564.88917 973.71972,565.04557 974.24489,565.04558 C 975.00229,565.04557 975.6814,564.75799 976.28242,564.18284 C 976.88316,563.60768 977.41095,562.91143 977.8654,562.09411 L 979.36506,559.46049 L 976.66868,548.01788 C 976.55752,547.63445 976.31016,547.38975 975.92633,547.28379 C 975.54259,547.17786 975.03255,547.12488 974.39632,547.12487 L 974.57819,546.09563 L 980.91021,546.09563 L 980.75878,547.12487 C 980.2437,547.12488 979.80438,547.17534 979.44082,547.27623 C 979.07725,547.37714 978.89547,547.60418 978.89547,547.95733 C 978.89547,548.01788 978.90556,548.05825 978.92583,548.07842 L 980.94048,556.70579 L 985.34874,548.92602 C 985.49008,548.62331 985.56079,548.3761 985.56079,548.18437 C 985.56079,547.83121 985.44215,547.56634 985.20488,547.38974 C 984.96752,547.21318 984.67206,547.12488 984.31867,547.12487 L 984.48523,546.09563 L 989.46911,546.09563 L 989.28733,547.12487 C 988.65109,547.12488 988.06782,547.27877 987.5377,547.58651 C 987.00748,547.89428 986.57573,548.33069 986.24252,548.89575 L 978.74396,562.09411 C 977.32005,564.55618 975.77995,565.78722 974.12373,565.78723 C 973.48749,565.78722 972.92449,565.5955 972.43463,565.21206 C 971.94487,564.82862 971.69994,564.32914 971.69994,563.71363 C 971.69994,563.27974 971.83623,562.90639 972.1089,562.59359 C 972.38167,562.28078 972.73001,562.12438 973.1542,562.12438 C 973.45714,562.12438 973.70963,562.2152 973.91168,562.39682 C 974.11364,562.57845 974.21462,562.82062 974.21462,563.12333 C 974.21462,563.48659 974.09337,563.80696 973.85106,564.08445 C 973.60865,564.36194 973.30562,564.52591 972.94215,564.57637 L 972.94215,564.57637 z M 995.9829,567.17972 C 994.5086,565.82758 993.4254,564.17274 992.7336,562.2152 C 992.0418,560.25764 991.6959,558.16387 991.696,555.93386 C 991.6959,554.06713 991.898,552.20039 992.3019,550.33364 C 992.7059,548.46691 993.3018,546.66324 994.0894,544.92261 C 994.8772,543.18203 995.8619,541.56755 997.0433,540.07919 C 998.2249,538.59085 999.5681,537.32198 1001.0728,536.27255 C 1001.1132,536.23221 1001.1637,536.21203 1001.2243,536.21201 L 1001.5273,536.21201 C 1001.6788,536.21203 1001.7545,536.29276 1001.7545,536.45417 C 1001.7545,536.55511 1001.7192,536.6207 1001.6485,536.65094 C 1000.275,537.79118 999.0682,539.14079 998.028,540.69975 C 996.9878,542.25875 996.1269,543.94638 995.4451,545.76265 C 994.7635,547.57895 994.2536,549.43055 993.9152,551.31747 C 993.5769,553.20439 993.4078,555.06105 993.4078,556.88742 C 993.4078,561.12542 994.4631,564.43005 996.5738,566.80132 C 996.6344,566.86186 996.6646,566.92745 996.6646,566.99808 C 996.6646,567.15952 996.589,567.24025 996.4375,567.24025 L 996.1344,567.24025 C 996.0739,567.24025 996.0234,567.22006 995.9829,567.17972 L 995.9829,567.17972 z M 1003.2997,556.61497 C 1003.2997,556.20127 1003.3199,555.88846 1003.3602,555.67656 L 1004.7843,547.12487 L 1002.209,547.12487 L 1002.3302,546.38322 C 1003.2391,546.38323 1004.0394,546.07547 1004.7313,545.45994 C 1005.423,544.84443 1005.9734,544.08765 1006.3824,543.18957 C 1006.7914,542.29155 1007.0869,541.35817 1007.2685,540.38947 L 1008.0714,540.38947 L 1007.1171,546.09563 L 1011.4193,546.09563 L 1011.2375,547.12487 L 1006.9505,547.12487 L 1005.4962,555.76738 C 1005.4559,556.00955 1005.4154,556.39298 1005.3751,556.91768 C 1005.3751,557.48275 1005.4988,557.96457 1005.7462,558.36314 C 1005.9935,558.76173 1006.3849,558.96101 1006.9201,558.96101 C 1007.5463,558.96101 1008.1067,558.64316 1008.6016,558.00746 C 1008.8239,557.69465 1008.9778,557.43735 1009.0638,557.23554 C 1009.1495,557.03374 1009.2328,556.77138 1009.3136,556.44847 C 1009.3944,556.12558 1009.4752,555.85819 1009.556,555.64629 L 1009.8439,553.84513 L 1010.6467,553.84513 L 1010.3438,555.7371 C 1010.2528,556.35262 1010.0408,556.97823 1009.7076,557.61393 C 1009.3742,558.24963 1008.9501,558.76676 1008.435,559.16534 C 1007.92,559.56391 1007.3443,559.7632 1006.7081,559.7632 C 1005.6578,559.7632 1004.8272,559.49328 1004.2162,558.95345 C 1003.6052,558.4136 1003.2997,557.63411 1003.2997,556.61497 L 1003.2997,556.61497 z M 1012.0706,567.24025 C 1011.9293,567.24025 1011.8586,567.15952 1011.8586,566.99808 C 1011.8586,566.88708 1011.8788,566.82149 1011.9191,566.80132 C 1013.3129,565.651 1014.5348,564.28374 1015.585,562.69954 C 1016.6354,561.11532 1017.4963,559.43274 1018.1679,557.65177 C 1018.8396,555.8708 1019.3419,554.04443 1019.6752,552.17264 C 1020.0085,550.30086 1020.1751,548.4316 1020.1751,546.56484 C 1020.1751,545.36409 1020.0741,544.16837 1019.8721,542.97768 C 1019.6701,541.78701 1019.3318,540.64932 1018.8572,539.56457 C 1018.3826,538.47986 1017.7665,537.50865 1017.0091,536.65094 C 1016.9687,536.57024 1016.9485,536.50464 1016.9485,536.45417 C 1016.9485,536.29276 1017.0192,536.21203 1017.1605,536.21201 L 1017.4635,536.21201 C 1017.514,536.21203 1017.5595,536.23221 1017.5999,536.27255 C 1018.5896,537.1908 1019.4051,538.25535 1020.0464,539.46619 C 1020.6876,540.67707 1021.1522,541.95855 1021.44,543.31066 C 1021.7278,544.6628 1021.8718,546.07043 1021.8718,547.53353 C 1021.8718,550.02589 1021.5131,552.5132 1020.7962,554.99545 C 1020.0792,557.47771 1019.0162,559.77834 1017.6074,561.89734 C 1016.1987,564.01634 1014.4995,565.77712 1012.51,567.17972 C 1012.4695,567.22006 1012.4241,567.24025 1012.3737,567.24025 L 1012.0706,567.24025 z"
       id="text2640" />
    <path
       inkscape:connector-curvature="0"
       id="path2470"
       d="m 937.96524,572.45635 0,2.0831 c 59.89413,0 89.83566,0 104.80916,0 7.4867,0 11.2412,0 13.1128,0 0.9359,0 1.3974,0 1.6313,0 0.117,0 0.159,0 0.1883,0 0.014,0 0.028,0 0.031,0 l 0,-1.04155 0,-1.04155 c 0,0 0.015,0 -119.77286,0 z"
       style="fill:#000000;fill-opacity:1;fill-rule:evenodd;stroke:none" />
    <path
       inkscape:connector-curvature="0"
       id="path8159"
       style="font-size:12px;fill-rule:evenodd;stroke-width:0.625;stroke-linejoin:round"
       d="m 1033.0627,564.29784 27.7491,9.15653 -27.7491,9.15652 c 4.4331,-5.406 4.4075,-12.80236 0,-18.31305 z" />
    <path
       inkscape:connector-curvature="0"
       style="fill:#000000;fill-opacity:1;stroke:#000000;stroke-width:2.50000024;stroke-linecap:round;stroke-linejoin:round;stroke-miterlimit:4;stroke-opacity:1;stroke-dashoffset:0"
       d="m 464.55635,439.70287 192.71769,0 0,61.82978 -192.71769,0 0,-61.82978 z"
       id="rect2470" />
    <path
       inkscape:connector-curvature="0"
       style="fill:#ccffaa;fill-opacity:1;stroke:#000000;stroke-width:2.50000024;stroke-linecap:round;stroke-linejoin:round;stroke-miterlimit:4;stroke-opacity:1;stroke-dashoffset:0"
       d="m 458.98895,434.78459 192.7177,0 0,61.82978 -192.7177,0 0,-61.82978 z"
       id="rect2468" />
    <path
       style="font-size:56px;font-style:normal;font-variant:normal;font-weight:normal;font-stretch:normal;text-align:start;line-height:100%;writing-mode:lr-tb;text-anchor:start;fill:#000000;fill-opacity:1;stroke:none;stroke-width:1px;stroke-linecap:butt;stroke-linejoin:miter;stroke-opacity:1;font-family:Verdana;-inkscape-font-specification:Verdana"
       d="M 556.76472,474.27826 C 556.57793,474.27826 556.48453,474.15903 556.48453,473.92056 L 556.60905,473.42288 C 556.65057,473.28808 556.73877,473.22069 556.87367,473.22069 C 557.73497,473.22069 558.43024,473.15589 558.95947,473.02628 C 559.48871,472.89668 559.83115,472.59341 559.98681,472.11646 L 564.36078,454.55758 C 564.42303,454.40208 564.45416,454.24655 564.45417,454.09101 C 564.45416,453.74887 563.61361,453.57779 561.93252,453.57777 C 561.87025,453.57779 561.81319,453.53891 561.7613,453.46113 C 561.70941,453.38338 561.68347,453.30303 561.68348,453.22007 L 561.808,452.72237 C 561.82875,452.58761 561.94808,452.52022 562.16601,452.5202 L 570.13565,452.5202 C 570.20827,452.52022 570.26794,452.55391 570.31466,452.62128 C 570.36134,452.68871 570.38468,452.76387 570.38471,452.8468 L 570.26017,453.34448 C 570.22903,453.50003 570.14082,453.57779 569.99556,453.57777 C 569.14461,453.57779 568.45453,453.64259 567.92532,453.77218 C 567.39607,453.9018 567.05882,454.20508 566.91355,454.68201 L 564.29851,465.19555 L 576.89116,455.35077 C 576.94303,455.2471 577.0442,455.13046 577.19469,455.00083 C 577.34514,454.87125 577.46448,454.74424 577.5527,454.6198 C 577.64089,454.49539 577.68498,454.33987 577.68502,454.15322 C 577.68498,453.76961 577.37886,453.57779 576.76664,453.57777 C 576.69397,453.57779 576.63171,453.53891 576.57985,453.46113 C 576.52795,453.38338 576.50199,453.30303 576.50202,453.22007 L 576.62655,452.72237 C 576.64727,452.58761 576.76661,452.52022 576.98455,452.5202 L 582.7283,452.5202 C 582.80091,452.52022 582.86058,452.55391 582.9073,452.62128 C 582.95397,452.68871 582.97732,452.76387 582.97735,452.8468 L 582.85282,453.34448 C 582.82167,453.50003 582.73346,453.57779 582.5882,453.57777 C 581.12501,453.57779 579.48023,454.28802 577.65388,455.70848 C 577.65386,455.70849 577.63829,455.71368 577.60718,455.72403 C 577.57603,455.73441 577.55009,455.74997 577.52935,455.77068 L 570.89836,460.96525 L 575.61477,472.20977 C 575.89493,472.67635 576.19068,472.96149 576.50202,473.06517 C 576.81331,473.16885 577.29066,473.22069 577.93406,473.22069 C 578.01706,473.22069 578.0871,473.25957 578.1442,473.33734 C 578.20125,473.4151 578.22979,473.48509 578.22981,473.5473 L 578.10528,474.06054 C 578.05338,474.20568 577.92366,474.27826 577.71614,474.27826 L 570.86723,474.27826 C 570.67005,474.27826 570.57148,474.15903 570.57149,473.92056 L 570.69601,473.42288 C 570.75826,473.28808 570.84647,473.22069 570.96063,473.22069 C 572.17474,473.22069 572.7818,472.91483 572.78182,472.30309 C 572.7818,472.24089 572.7792,472.18904 572.77403,472.14756 C 572.76883,472.10609 572.76104,472.06462 572.75068,472.02314 L 568.79699,462.61382 L 563.97163,466.34645 L 562.50845,472.24088 C 562.46694,472.44824 562.44618,472.60896 562.44619,472.72301 C 562.44618,473.0548 563.27636,473.22069 564.93671,473.22069 C 565.01971,473.22069 565.08717,473.25957 565.13906,473.33734 C 565.19093,473.4151 565.21687,473.48509 565.21689,473.5473 L 565.09236,474.06054 C 565.04046,474.20568 564.91075,474.27826 564.70322,474.27826 L 556.76472,474.27826 z M 581.35073,477.00226 C 581.32784,477.00226 581.30267,476.98624 581.27519,476.95423 C 581.24773,476.9222 581.23399,476.89247 581.23399,476.86503 L 581.29579,476.6386 C 581.30953,476.57457 581.34615,476.54253 581.40567,476.54254 C 581.70325,476.54253 581.90926,476.51738 582.02372,476.46707 C 582.13818,476.41674 582.22745,476.27723 582.29154,476.04851 L 583.87787,469.72227 C 583.87787,469.70856 583.89504,469.61249 583.92937,469.43409 C 583.9637,469.2557 583.98088,469.12305 583.98088,469.03612 C 583.98088,468.86231 583.94882,468.71593 583.88474,468.597 C 583.82064,468.47808 583.71077,468.41861 583.55511,468.4186 C 583.39487,468.41861 583.2541,468.48607 583.13278,468.62102 C 583.01146,468.75596 582.91302,468.91378 582.83748,469.09445 C 582.76194,469.27514 582.69213,469.48556 582.62804,469.72571 C 582.56394,469.96586 582.51816,470.14311 582.49069,470.25747 C 582.46779,470.32608 582.43346,470.3604 582.38768,470.36039 L 582.22287,470.36039 C 582.1542,470.3604 582.11986,470.31236 582.11986,470.21629 C 582.22974,469.77259 582.3293,469.41924 582.41858,469.1562 C 582.50786,468.89318 582.64749,468.64846 582.83748,468.42203 C 583.02747,468.19561 583.27584,468.0824 583.58257,468.08239 C 583.90304,468.0824 584.18118,468.17617 584.41695,468.36371 C 584.65272,468.55127 584.79349,468.80284 584.83928,469.11847 C 585.4207,468.42776 586.02044,468.0824 586.6385,468.08239 C 587.02763,468.0824 587.3584,468.1876 587.63081,468.39801 C 587.9032,468.60844 588.10807,468.87946 588.24542,469.2111 C 588.38275,469.54274 588.45143,469.90068 588.45144,470.28492 C 588.45143,470.875 588.30149,471.49367 588.00163,472.14093 C 587.70176,472.7882 587.2943,473.3291 586.77927,473.76366 C 586.26422,474.19822 585.70683,474.41549 585.1071,474.41549 C 584.83241,474.41549 584.58519,474.3343 584.36544,474.17191 C 584.14569,474.00953 583.97859,473.79567 583.86413,473.53037 L 583.21861,476.10341 C 583.19115,476.19032 583.17741,476.27037 583.17741,476.34355 C 583.17741,476.47621 583.48186,476.54253 584.09075,476.54254 C 584.1228,476.54253 584.15027,476.55855 584.17316,476.59057 C 584.19605,476.6226 584.20749,476.65689 584.20749,476.69349 L 584.14569,476.91992 C 584.13653,476.97481 584.08617,477.00226 583.99461,477.00226 L 581.35073,477.00226 z M 585.13457,474.07928 C 585.49624,474.07928 585.82701,473.91575 586.12689,473.5887 C 586.42675,473.26163 586.67626,472.8568 586.87541,472.37422 C 587.07456,471.89164 587.22563,471.4079 587.32865,470.92303 C 587.43166,470.43815 587.48316,470.02876 587.48316,469.69483 C 587.48316,469.35633 587.41563,469.059 587.28057,468.80284 C 587.14552,468.54669 586.92233,468.41861 586.61102,468.4186 C 586.27224,468.41861 585.94833,468.54555 585.63932,468.79941 C 585.33029,469.05329 585.05445,469.36091 584.81181,469.72227 C 584.8118,469.72685 584.8118,469.73372 584.81181,469.74286 C 584.8118,469.75201 584.80723,469.76116 584.79807,469.77031 L 584.03581,472.8305 C 584.09075,473.169 584.21092,473.46176 584.39634,473.70877 C 584.58176,473.95578 584.82783,474.07928 585.13457,474.07928 L 585.13457,474.07928 z M 594.8027,474.58932 C 593.30838,474.58932 592.13837,474.03202 591.29263,472.91742 C 590.4469,471.80282 590.02404,470.47307 590.02404,468.92818 C 590.02404,467.43513 590.38982,466.01985 591.12141,464.68232 C 591.853,463.34481 592.85179,462.26909 594.11781,461.45515 C 595.38381,460.64125 596.75878,460.2343 598.24272,460.23428 C 599.14552,460.2343 599.92381,460.47276 600.57758,460.9497 C 601.23133,461.42666 601.5582,462.09023 601.55821,462.94043 C 601.5582,464.67196 600.70209,465.7736 598.98987,466.24535 C 597.27764,466.71712 595.21259,466.95301 592.79473,466.953 L 592.73246,466.953 C 592.42115,468.20758 592.24992,469.30145 592.21879,470.23459 C 592.21879,471.1885 592.43931,472.02574 592.88034,472.74634 C 593.32136,473.46694 593.98291,473.82725 594.86497,473.82724 C 596.12059,473.82725 597.32434,473.52656 598.47621,472.92519 C 599.62806,472.32382 600.58275,471.50991 601.3403,470.48344 C 601.36103,470.44196 601.4233,470.42123 601.52708,470.42123 C 601.64122,470.42123 601.74499,470.47307 601.8384,470.57675 C 601.93177,470.68044 601.97848,470.77894 601.97849,470.87225 C 601.97848,470.93446 601.96809,470.97594 601.94736,470.99667 C 601.40773,471.73283 600.76435,472.37049 600.01721,472.90964 C 599.27004,473.4488 598.45026,473.86353 597.55783,474.15385 C 596.66538,474.44416 595.74701,474.58932 594.8027,474.58932 L 594.8027,474.58932 z M 592.91926,466.19092 C 594.1645,466.19093 595.30598,466.13649 596.34371,466.02762 C 597.38141,465.91876 598.32573,465.62326 599.17666,465.14112 C 600.02758,464.659 600.45304,463.92544 600.45305,462.94043 C 600.45304,462.56718 600.34667,462.23021 600.13395,461.92951 C 599.92121,461.62884 599.64362,461.39814 599.30119,461.23742 C 598.95873,461.07673 598.58515,460.99638 598.18046,460.99636 C 596.8418,460.99638 595.72885,461.50183 594.84162,462.51273 C 593.95436,463.52366 593.31357,464.74972 592.91926,466.19092 L 592.91926,466.19092 z M 611.48913,482.21009 C 609.97406,480.82071 608.86111,479.1203 608.15028,477.10884 C 607.43945,475.09737 607.08403,472.94594 607.08403,470.65452 C 607.08403,468.73636 607.29158,466.81822 607.70667,464.90006 C 608.12175,462.98192 608.734,461.12857 609.54341,459.34 C 610.35282,457.55148 611.3646,455.89254 612.57873,454.36318 C 613.79284,452.83386 615.173,451.53004 616.71921,450.4517 C 616.76069,450.41025 616.81259,450.38952 616.87486,450.38949 L 617.18618,450.38949 C 617.34182,450.38952 617.41965,450.47246 617.41966,450.63834 C 617.41965,450.74204 617.38333,450.80943 617.3107,450.84051 C 615.8994,452.01217 614.65933,453.39894 613.5905,455.00083 C 612.52164,456.60277 611.63699,458.33688 610.93654,460.20317 C 610.23608,462.0695 609.71204,463.97209 609.36441,465.91097 C 609.01677,467.84987 608.84296,469.75765 608.84296,471.63433 C 608.84296,475.98905 609.92736,479.3847 612.09619,481.82127 C 612.15845,481.88348 612.18958,481.95087 612.18959,482.02346 C 612.18958,482.18935 612.11175,482.27229 611.9561,482.2723 L 611.64478,482.2723 C 611.58252,482.27229 611.53062,482.25155 611.48913,482.21009 L 611.48913,482.21009 z M 617.09278,471.72764 C 617.09277,471.48918 617.13428,471.18331 617.21731,470.81004 L 619.50547,461.60291 L 616.12771,461.60291 C 616.06544,461.60292 616.00837,461.56404 615.95648,461.48626 C 615.9046,461.40851 615.87865,461.32816 615.87865,461.2452 L 616.00319,460.74752 C 616.04469,460.61274 616.13289,460.54534 616.2678,460.54533 L 619.77008,460.54533 L 621.0776,455.35077 C 621.16061,455.06047 621.31367,454.82459 621.53679,454.64312 C 621.75988,454.4617 622.02191,454.37098 622.32286,454.37095 C 622.56152,454.37098 622.76906,454.44615 622.94548,454.59646 C 623.12189,454.74683 623.21009,454.94642 623.2101,455.19524 C 623.21009,455.33005 623.19972,455.41818 623.17897,455.45964 L 621.90258,460.54533 L 625.21807,460.54533 C 625.2907,460.54534 625.35037,460.57904 625.39708,460.64642 C 625.44377,460.71383 625.46712,460.789 625.46713,460.87193 L 625.34261,461.38517 C 625.34259,461.53034 625.25958,461.60292 625.09355,461.60291 L 621.65353,461.60291 L 619.31868,470.90336 C 619.1734,471.50472 619.10076,472.01278 619.10076,472.42752 C 619.10076,473.36067 619.41725,473.82725 620.05026,473.82724 C 620.70402,473.82725 621.30329,473.60691 621.8481,473.16626 C 622.39289,472.7256 622.85727,472.18386 623.24123,471.54102 C 623.62518,470.89818 623.94687,470.23979 624.20631,469.56583 C 624.24781,469.48289 624.31007,469.44141 624.3931,469.44141 L 624.76667,469.44141 C 624.92232,469.44141 625.00014,469.5451 625.00016,469.75247 C 624.51243,471.02777 623.8431,472.15275 622.99218,473.12738 C 622.14125,474.102 621.13986,474.58932 619.98799,474.58932 C 619.1682,474.58932 618.48071,474.31715 617.92555,473.77281 C 617.37037,473.22847 617.09277,472.54675 617.09278,471.72764 L 617.09278,471.72764 z M 627.14822,482.2723 C 627.00294,482.27229 626.9303,482.18935 626.9303,482.02346 C 626.9303,481.9094 626.95107,481.842 626.99257,481.82127 C 628.42461,480.63927 629.68024,479.23435 630.75947,477.60652 C 631.83868,475.97868 632.72334,474.24975 633.41342,472.41973 C 634.10349,470.58971 634.61975,468.71304 634.9622,466.7897 C 635.30464,464.86637 635.47586,462.94563 635.47588,461.02746 C 635.47586,459.79364 635.3721,458.56499 635.16456,457.3415 C 634.95701,456.11804 634.60938,454.94902 634.12166,453.83439 C 633.63392,452.71981 633.00092,451.72185 632.22264,450.84051 C 632.18113,450.75759 632.16038,450.69019 632.16038,450.63834 C 632.16038,450.47246 632.23301,450.38952 632.3783,450.38949 L 632.68962,450.38949 C 632.74149,450.38952 632.78819,450.41025 632.8297,450.4517 C 633.84666,451.39525 634.68461,452.48911 635.34357,453.7333 C 636.00251,454.97753 636.47985,456.29431 636.7756,457.68365 C 637.07135,459.07303 637.21922,460.51943 637.21923,462.02282 C 637.21922,464.58383 636.85084,467.13964 636.11407,469.69025 C 635.37728,472.24089 634.2851,474.60487 632.83749,476.78224 C 631.38987,478.9596 629.64392,480.76888 627.59963,482.21009 C 627.55813,482.25155 627.51142,482.27229 627.45954,482.2723 L 627.14822,482.2723 z"
       id="text3298" />
    <path
       style="fill:#000000;fill-opacity:1;fill-rule:evenodd;stroke:none;stroke-width:2.29999995;stroke-linecap:butt;stroke-linejoin:miter;stroke-miterlimit:4;stroke-dasharray:none;stroke-opacity:1"
       d="M 406.09678,464.89469 C 406.09679,518.7942 406.09678,545.75089 406.09678,559.22576 C 406.09678,565.9632 406.09678,569.3363 406.09678,571.02066 C 406.09678,571.86284 406.09678,572.27393 406.09678,572.48447 C 406.09678,572.58975 406.09678,572.6552 406.09678,572.68152 L 407.13834,572.68152 L 408.17989,572.68152 C 408.17989,572.68152 408.1799,572.69371 408.17989,464.89469 L 406.09678,464.89469 z"
       id="path3323" />
    <path
       inkscape:connector-curvature="0"
       id="path3325"
       d="m 407.19466,572.00594 0,2.08311 c 24.5668,0 36.84354,0 42.98524,0 3.07085,0 4.60897,0 5.37668,0 0.38386,0 0.57964,0 0.6756,0 0.048,0 0.0724,0 0.0844,0 l 0,-1.04155 0,-1.04156 c 0,0 0.0116,0 -49.12197,0 z"
       style="fill:#000000;fill-opacity:1;fill-rule:evenodd;stroke:none" />
    <path
       inkscape:connector-curvature="0"
       id="path8151"
       style="font-size:12px;fill-rule:evenodd;stroke-width:0.625;stroke-linejoin:round"
       d="m 434.16984,563.85513 24.90044,9.15653 -24.90044,9.15652 c 3.97805,-5.406 3.95512,-12.80236 0,-18.31305 z" />
    <rect
       style="fill:#000000;fill-opacity:1;stroke:#000000;stroke-width:2.5;stroke-linecap:round;stroke-linejoin:round;stroke-miterlimit:4;stroke-opacity:1;stroke-dasharray:none;stroke-dashoffset:0"
       id="rect3329"
       width="191.63405"
       height="61.829777"
       x="465.073"
       y="545.1427" />
    <rect
       style="fill:#afe9dd;fill-opacity:1;stroke:#000000;stroke-width:2.5;stroke-linecap:round;stroke-linejoin:round;stroke-miterlimit:4;stroke-opacity:1;stroke-dasharray:none;stroke-dashoffset:0"
       id="rect3331"
       width="191.63405"
       height="61.829777"
       x="459.53696"
       y="540.22443" />
    <text
       xml:space="preserve"
       style="font-size:56px;font-style:normal;font-variant:normal;font-weight:normal;font-stretch:normal;text-align:start;line-height:125%;writing-mode:lr-tb;text-anchor:start;fill:#000000;fill-opacity:1;stroke:none;stroke-width:1px;stroke-linecap:butt;stroke-linejoin:miter;stroke-opacity:1;font-family:Verdana;-inkscape-font-specification:Verdana"
       x="320"
       y="-89"
       id="text3333"
       sodipodi:linespacing="125%"
       transform="translate(-22.582686,278.33055)"><tspan
         sodipodi:role="line"
         id="tspan3335"
         x="320"
         y="-89" /></text>
    <path
       inkscape:connector-curvature="0"
       id="text3337"
       d="m 538.32186,579.6113 c -0.15087,0 -0.2263,-0.0963 -0.2263,-0.28891 l 0.10057,-0.40198 c 0.0335,-0.10886 0.10477,-0.1633 0.21374,-0.1633 0.69566,0 1.25722,-0.0523 1.68468,-0.15702 0.42746,-0.10468 0.70405,-0.34964 0.82977,-0.73486 l 3.53282,-14.18217 c 0.0503,-0.1256 0.0754,-0.25122 0.0754,-0.37685 -10e-6,-0.27634 -0.67891,-0.41452 -2.03671,-0.41453 -0.0503,1e-5 -0.0964,-0.0314 -0.13829,-0.0942 -0.0419,-0.0628 -0.0629,-0.12769 -0.0629,-0.19471 l 0.10058,-0.40197 c 0.0168,-0.10885 0.11315,-0.16328 0.28917,-0.1633 l 6.43701,0 c 0.0587,2e-5 0.10685,0.0272 0.14458,0.0817 0.0377,0.0544 0.0566,0.11517 0.0566,0.18214 l -0.10058,0.40198 c -0.0252,0.12563 -0.0964,0.18844 -0.21373,0.18843 -0.6873,1e-5 -1.24466,0.0524 -1.67211,0.15702 -0.42747,0.10469 -0.69987,0.34965 -0.8172,0.73485 l -2.11215,8.49172 10.17099,-7.95156 c 0.0419,-0.0837 0.12361,-0.17794 0.24516,-0.28264 0.12151,-0.10467 0.2179,-0.20725 0.28916,-0.30776 0.0712,-0.10048 0.10684,-0.2261 0.10687,-0.37685 -3e-5,-0.30984 -0.24728,-0.46477 -0.74177,-0.46478 -0.0587,1e-5 -0.10897,-0.0314 -0.15087,-0.0942 -0.0419,-0.0628 -0.0629,-0.12769 -0.0629,-0.19471 l 0.10058,-0.40197 c 0.0168,-0.10885 0.11313,-0.16328 0.28916,-0.1633 l 4.63918,0 c 0.0586,2e-5 0.10684,0.0272 0.14458,0.0817 0.0377,0.0544 0.0566,0.11517 0.0566,0.18214 l -0.10058,0.40198 c -0.0252,0.12563 -0.0964,0.18844 -0.21373,0.18843 -1.18181,1e-5 -2.51029,0.57366 -3.98541,1.72095 -3e-5,1e-5 -0.0126,0.004 -0.0377,0.0125 -0.0252,0.008 -0.0461,0.0209 -0.0629,0.0377 l -5.3558,4.19561 3.80941,9.08211 c 0.22628,0.37686 0.46516,0.60715 0.71662,0.6909 0.25143,0.0837 0.63698,0.12562 1.15665,0.12562 0.067,0 0.12361,0.0314 0.16973,0.0942 0.0461,0.0628 0.0691,0.11934 0.0692,0.16958 l -0.10058,0.41454 c -0.0419,0.11724 -0.1467,0.17586 -0.31431,0.17586 l -5.53181,0 c -0.15926,0 -0.23889,-0.0963 -0.23887,-0.28892 l 0.10057,-0.40197 c 0.0503,-0.10887 0.12153,-0.1633 0.21374,-0.1633 0.98062,0 1.47094,-0.24705 1.47095,-0.74114 -10e-6,-0.0502 -0.002,-0.0921 -0.006,-0.12562 -0.004,-0.0335 -0.0105,-0.067 -0.0189,-0.10049 l -3.19336,-7.59984 -3.89742,3.01481 -1.18179,4.76089 c -0.0335,0.16749 -0.0503,0.29729 -0.0503,0.38941 0,0.26799 0.67052,0.40198 2.01157,0.40198 0.067,0 0.12152,0.0314 0.16344,0.0942 0.0419,0.0628 0.0629,0.11934 0.0629,0.16958 l -0.10058,0.41454 c -0.0419,0.11724 -0.14668,0.17586 -0.3143,0.17586 l -6.41187,0 z m 20.99499,-0.80357 c 0,-0.16257 0.0259,-0.30665 0.0776,-0.43227 l 0.92074,-2.45508 c 0.0924,-0.24753 0.1442,-0.47845 0.1553,-0.69274 0,-0.23276 -0.0906,-0.34914 -0.27178,-0.34914 -0.29582,0 -0.53617,0.14871 -0.72106,0.44612 -0.18489,0.29742 -0.33095,0.64379 -0.43818,1.03912 -0.0185,0.0554 -0.0444,0.0831 -0.0777,0.0831 l -0.13312,0 c -0.0554,10e-6 -0.0832,-0.0388 -0.0832,-0.11638 0.11463,-0.44704 0.29489,-0.84606 0.54079,-1.19705 0.2459,-0.35099 0.55743,-0.52648 0.93461,-0.52649 0.26253,10e-6 0.48162,0.0878 0.65727,0.26324 0.17564,0.1755 0.26346,0.39441 0.26346,0.65672 0,0.15887 -0.0259,0.30297 -0.0776,0.43228 l -0.92074,2.44952 c -0.10723,0.28819 -0.16085,0.5191 -0.16085,0.69275 0,0.23276 0.0924,0.34914 0.27733,0.34914 0.20707,0 0.38734,-0.0804 0.54079,-0.24107 0.15346,-0.16072 0.27918,-0.35099 0.37718,-0.57082 0.098,-0.21983 0.17656,-0.44428 0.23572,-0.67335 0.0259,-0.0517 0.0536,-0.0776 0.0832,-0.0776 l 0.13312,0 c 0.0555,1e-5 0.0832,0.037 0.0832,0.11085 -0.0629,0.2697 -0.159,0.53479 -0.28842,0.79526 -0.12942,0.26047 -0.29675,0.4803 -0.50197,0.65949 -0.20523,0.17919 -0.43911,0.26879 -0.70164,0.26879 -0.25885,0 -0.47424,-0.0878 -0.64618,-0.26325 -0.17195,-0.17549 -0.25792,-0.39255 -0.25792,-0.65117 l 0,0 z m 1.29236,-6.07396 c 0,-0.15517 0.0601,-0.29094 0.18026,-0.40733 0.12018,-0.11637 0.25792,-0.17456 0.41322,-0.17457 0.11463,10e-6 0.20892,0.0351 0.28288,0.10529 0.0739,0.0702 0.11093,0.16442 0.11093,0.28264 0,0.15149 -0.061,0.28635 -0.18304,0.40457 -0.12202,0.11823 -0.25699,0.17734 -0.4049,0.17734 -0.10723,0 -0.2006,-0.036 -0.2801,-0.10807 -0.0795,-0.072 -0.11925,-0.16533 -0.11925,-0.27987 l 0,0 z"
       style="font-size:56px;font-style:normal;font-variant:normal;font-weight:normal;font-stretch:normal;text-align:start;line-height:100%;writing-mode:lr-tb;text-anchor:start;fill:#000000;fill-opacity:1;stroke:none;font-family:Verdana;-inkscape-font-specification:Verdana" />
    <path
       inkscape:connector-curvature="0"
       style="font-size:28px;font-style:normal;font-weight:normal;fill:#000000;fill-opacity:1;stroke:none;font-family:Bitstream Vera Sans"
       d="m 570.39647,581.387 -2.24058,0 0,-23.65696 c -10e-6,-1.90717 0.46099,-3.34409 1.38298,-4.31076 0.92198,-0.96664 1.96501,-1.44997 3.12909,-1.44999 0.69018,2e-5 1.21813,0.14154 1.58385,0.42455 0.3657,0.28305 0.54855,0.61615 0.54857,0.99931 -2e-5,0.34837 -0.13137,0.63575 -0.39404,0.86215 -0.2627,0.22645 -0.58462,0.33966 -0.96577,0.33964 -0.30906,2e-5 -0.60265,-0.0653 -0.88078,-0.19594 -0.18544,-0.0871 -0.3992,-0.28955 -0.64127,-0.60743 -0.24209,-0.31784 -0.48161,-0.47678 -0.71853,-0.4768 -0.17514,2e-5 -0.33482,0.0523 -0.47902,0.15676 -0.10308,0.0697 -0.17514,0.18725 -0.21634,0.3527 -0.0721,0.2874 -0.10816,0.89265 -0.10816,1.81574 l 0,25.74703 z"
       id="text3727" />
    <path
       inkscape:connector-curvature="0"
       style="font-size:28px;font-style:normal;font-weight:normal;fill:#000000;fill-opacity:1;stroke:none;font-family:Bitstream Vera Sans"
       d="m 568.16358,559.32153 2.24059,0 0,23.65695 c -10e-6,1.90719 -0.46101,3.34411 -1.38299,4.31077 -0.92199,0.96665 -1.96502,1.44998 -3.12908,1.44998 -0.69021,0 -1.21817,-0.14152 -1.58387,-0.42454 -0.3657,-0.28304 -0.54855,-0.61614 -0.54855,-0.99931 0,-0.34835 0.13134,-0.63574 0.39403,-0.86216 0.26269,-0.22643 0.57945,-0.33964 0.95032,-0.33963 0.31934,-1e-5 0.62323,0.0697 0.91168,0.209 0.18542,0.0871 0.39661,0.28738 0.63355,0.6009 0.23693,0.3135 0.47385,0.47026 0.71081,0.47026 0.17511,0 0.33478,-0.0522 0.47901,-0.15675 0.10296,-0.061 0.17511,-0.18289 0.21633,-0.36576 0.0721,-0.27868 0.10817,-0.87958 0.10817,-1.80269 l 0,-25.74702 z"
       id="text3731" />
    <path
       inkscape:connector-curvature="0"
       id="text3469"
       d="m 580.57069,577.59256 c -1.20694,0 -2.15196,-0.45012 -2.83505,-1.35038 -0.6831,-0.90025 -1.02464,-1.97428 -1.02464,-3.22208 0,-1.20592 0.29545,-2.34903 0.88635,-3.42934 0.59089,-1.0803 1.39761,-1.94915 2.42017,-2.60656 1.02253,-0.65738 2.13309,-0.98608 3.33165,-0.98609 0.72919,10e-6 1.3578,0.19262 1.88584,0.57784 0.52803,0.38523 0.79205,0.9212 0.79206,1.6079 -10e-6,1.39854 -0.69148,2.28833 -2.07443,2.66936 -1.38296,0.38104 -3.05088,0.57156 -5.00377,0.57156 l -0.0503,0 c -0.25145,1.01331 -0.38974,1.89682 -0.41489,2.65052 0,0.77045 0.17811,1.44669 0.53433,2.02872 0.35621,0.58202 0.89053,0.87303 1.60297,0.87303 1.01416,0 1.98641,-0.24286 2.91677,-0.72858 0.93034,-0.48572 1.70144,-1.14311 2.3133,-1.97219 0.0168,-0.0335 0.067,-0.0502 0.15087,-0.0502 0.0922,10e-6 0.176,0.0419 0.25144,0.12562 0.0754,0.0838 0.11314,0.1633 0.11315,0.23867 -10e-6,0.0502 -0.008,0.0838 -0.0252,0.10049 -0.43585,0.59459 -0.9555,1.10962 -1.55896,1.54509 -0.60348,0.43548 -1.26562,0.77046 -1.98643,1.00494 -0.72081,0.23449 -1.46257,0.35173 -2.22529,0.35173 l 0,0 z m -1.52124,-6.78332 c 1.00577,10e-6 1.92775,-0.044 2.7659,-0.13189 0.83815,-0.0879 1.60087,-0.3266 2.28816,-0.71602 0.68728,-0.38941 1.03092,-0.9819 1.03093,-1.77748 -1e-5,-0.30148 -0.0859,-0.57365 -0.25774,-0.81652 -0.17182,-0.24284 -0.39603,-0.42917 -0.67261,-0.55899 -0.2766,-0.1298 -0.57833,-0.19469 -0.90521,-0.19471 -1.08122,2e-5 -1.98014,0.40827 -2.69676,1.22477 -0.71662,0.81652 -1.23418,1.8068 -1.55267,2.97084 l 0,0 z m 14.99874,12.93856 c -1.2237,-1.12218 -2.12262,-2.49559 -2.69675,-4.12024 -0.57414,-1.62465 -0.86121,-3.36235 -0.8612,-5.21311 -10e-6,-1.54927 0.16762,-3.09855 0.50289,-4.64783 0.33525,-1.54927 0.82976,-3.0462 1.48353,-4.49081 0.65375,-1.44458 1.47095,-2.7845 2.4516,-4.01975 0.98063,-1.23521 2.09537,-2.2883 3.34423,-3.15926 0.0335,-0.0335 0.0754,-0.0502 0.12572,-0.0502 l 0.25144,0 c 0.12572,2e-5 0.18858,0.067 0.18859,0.20099 -1e-5,0.0838 -0.0294,0.13819 -0.088,0.1633 -1.13991,0.94634 -2.1415,2.06642 -3.00479,3.36026 -0.8633,1.29387 -1.57783,2.6945 -2.14357,4.20189 -0.56576,1.50741 -0.98903,3.04413 -1.2698,4.61015 -0.28079,1.56603 -0.42118,3.10693 -0.42117,4.6227 -10e-6,3.51728 0.87586,6.25992 2.6276,8.22792 0.0503,0.0502 0.0754,0.10468 0.0754,0.1633 -1e-5,0.13399 -0.0629,0.20099 -0.18859,0.20099 l -0.25144,0 c -0.0503,0 -0.0922,-0.0167 -0.12573,-0.0502 l 0,0 z m 6.88962,-6.77076 c 0,-0.0502 0.0168,-0.14236 0.0503,-0.27635 l 2.70304,-8.9565 -2.3133,0 c -0.58671,0 -1.09589,0.15494 -1.52754,0.46478 -0.43164,0.30986 -0.8151,0.68043 -1.15036,1.11171 -0.33526,0.4313 -0.52385,0.65113 -0.56575,0.65949 l -0.31431,0 c -0.11734,10e-6 -0.17601,-0.067 -0.17601,-0.20099 0,-0.0335 0.008,-0.067 0.0252,-0.10049 0.55318,-0.97143 1.14408,-1.78585 1.77269,-2.44325 0.62862,-0.65739 1.34942,-0.98609 2.16244,-0.9861 l 7.73196,0 c 0.19276,1e-5 0.34363,0.0544 0.4526,0.1633 0.10895,0.10888 0.16343,0.25125 0.16344,0.42711 -10e-6,0.22611 -0.0901,0.43339 -0.2703,0.6218 -0.18022,0.18844 -0.38347,0.28264 -0.60976,0.28264 l -4.60146,0 -1.7727,9.03186 c -0.0503,0.23449 -0.17182,0.43548 -0.36459,0.60297 -0.19278,0.16749 -0.41489,0.25123 -0.66633,0.25123 -0.20116,0 -0.37298,-0.0649 -0.51546,-0.19471 -0.1425,-0.1298 -0.21374,-0.28264 -0.21373,-0.4585 l 0,0 z m 7.61881,6.82101 c -0.11734,-10e-6 -0.17601,-0.067 -0.17601,-0.20099 0,-0.0921 0.0168,-0.14656 0.0503,-0.1633 1.15665,-0.9547 2.17081,-2.08943 3.04249,-3.40423 0.87168,-1.31479 1.5862,-2.71123 2.14358,-4.18932 0.55736,-1.47809 0.97435,-2.99387 1.25094,-4.54734 0.27659,-1.55346 0.41488,-3.10483 0.41489,-4.65411 -10e-6,-0.99656 -0.0838,-1.98893 -0.25145,-2.97713 -0.16764,-0.98817 -0.44842,-1.93239 -0.84234,-2.83266 -0.39394,-0.90024 -0.90521,-1.70629 -1.53382,-2.41813 -0.0335,-0.067 -0.0503,-0.12141 -0.0503,-0.1633 0,-0.13398 0.0587,-0.20097 0.17601,-0.20099 l 0.25145,0 c 0.0419,2e-5 0.0796,0.0167 0.11315,0.0502 0.82139,0.76209 1.49819,1.6456 2.03043,2.65051 0.53222,1.00496 0.91777,2.06851 1.15665,3.19068 0.23886,1.12219 0.3583,2.29043 0.35831,3.50472 -1e-5,2.0685 -0.29755,4.1328 -0.89264,6.19292 -0.59509,2.06012 -1.47725,3.9695 -2.64646,5.72814 -1.16923,1.75863 -2.57942,3.21997 -4.23058,4.38403 -0.0335,0.0335 -0.0712,0.0502 -0.11315,0.0502 l -0.25145,0 z m 13.56551,-6.20549 c -0.71243,0 -1.318,-0.19261 -1.8167,-0.57784 -0.4987,-0.38522 -0.87378,-0.8835 -1.12522,-1.49484 -0.25144,-0.61133 -0.37717,-1.26454 -0.37716,-1.95963 -10e-6,-0.80393 0.15924,-1.64976 0.47774,-2.53746 0.3185,-0.88768 0.75643,-1.71047 1.3138,-2.46837 0.55737,-0.75789 1.21323,-1.37341 1.96757,-1.84658 0.75433,-0.47314 1.54219,-0.70972 2.36359,-0.70973 0.4945,10e-6 0.94292,0.14866 1.34523,0.44594 0.40231,0.2973 0.70824,0.68881 0.91778,1.17452 l 1.47096,-5.8412 c 0.0838,-0.37683 0.12572,-0.60713 0.12573,-0.69089 -10e-6,-0.30984 -0.549,-0.46477 -1.64697,-0.46478 -0.0503,10e-6 -0.0964,-0.0314 -0.1383,-0.0942 -0.0419,-0.0628 -0.0629,-0.1277 -0.0629,-0.19471 l 0.10057,-0.40197 c 0.0335,-0.10885 0.10477,-0.16329 0.21374,-0.16331 l 3.36937,-0.27635 c 0.16762,1e-5 0.25143,0.0838 0.25145,0.25123 l -3.70883,14.84794 c -1e-5,0.10887 -0.0294,0.31823 -0.088,0.62808 -0.0587,0.30986 -0.088,0.51922 -0.088,0.62809 -10e-6,0.7537 0.25981,1.13055 0.77948,1.13055 0.37716,0 0.69566,-0.1947 0.95549,-0.58412 0.25982,-0.38941 0.45259,-0.78929 0.57833,-1.19964 0.12571,-0.41035 0.264,-0.93794 0.41489,-1.58277 0.0419,-0.11724 0.10475,-0.17586 0.18858,-0.17587 l 0.30174,0 c 0.0503,1e-5 0.0922,0.0251 0.12572,0.0754 0.0335,0.0502 0.0503,0.10887 0.0503,0.17587 -0.2766,1.16405 -0.5951,2.10617 -0.95549,2.82638 -0.36042,0.7202 -0.93455,1.0803 -1.72241,1.0803 -0.57833,0 -1.08332,-0.17167 -1.51496,-0.51503 -0.43165,-0.34335 -0.68939,-0.80394 -0.77319,-1.38179 -0.45261,0.54435 -0.96389,0.99657 -1.53382,1.35667 -0.56995,0.36011 -1.15666,0.54015 -1.76012,0.54015 l 0,0 z m 0.0503,-0.61552 c 0.41907,0 0.83605,-0.11934 1.25094,-0.35801 0.41488,-0.23867 0.79414,-0.54224 1.13779,-0.91072 0.34364,-0.36847 0.63699,-0.74114 0.88006,-1.11799 0.0168,0 0.0252,-0.0251 0.0252,-0.0754 l 1.42066,-5.61509 c -0.10897,-0.62807 -0.32898,-1.16613 -0.66004,-1.61418 -0.33108,-0.44802 -0.78159,-0.67203 -1.35153,-0.67205 -0.8633,2e-5 -1.62183,0.48154 -2.27558,1.4446 -0.65376,0.96307 -1.15875,2.08944 -1.51496,3.3791 -0.35622,1.28967 -0.53433,2.35741 -0.53432,3.20323 -1e-5,0.5946 0.13201,1.13265 0.39602,1.61418 0.26402,0.48154 0.67262,0.7223 1.2258,0.7223 l 0,0 z m 12.61001,0 c -10e-6,-0.0502 0.0168,-0.14236 0.0503,-0.27635 l 2.70304,-8.9565 -2.3133,0 c -0.58671,0 -1.09589,0.15494 -1.52753,0.46478 -0.43165,0.30986 -0.81511,0.68043 -1.15037,1.11171 -0.33526,0.4313 -0.52384,0.65113 -0.56575,0.65949 l -0.31431,0 c -0.11734,10e-6 -0.17601,-0.067 -0.17601,-0.20099 0,-0.0335 0.008,-0.067 0.0252,-0.10049 0.55318,-0.97143 1.14408,-1.78585 1.7727,-2.44325 0.62861,-0.65739 1.34942,-0.98609 2.16243,-0.9861 l 7.73196,0 c 0.19276,1e-5 0.34363,0.0544 0.4526,0.1633 0.10895,0.10888 0.16343,0.25125 0.16344,0.42711 -10e-6,0.22611 -0.0901,0.43339 -0.2703,0.6218 -0.18022,0.18844 -0.38347,0.28264 -0.60976,0.28264 l -4.60146,0 -1.77269,9.03186 c -0.0503,0.23449 -0.17183,0.43548 -0.36459,0.60297 -0.19279,0.16749 -0.4149,0.25123 -0.66634,0.25123 -0.20116,0 -0.37298,-0.0649 -0.51546,-0.19471 -0.14249,-0.1298 -0.21373,-0.28264 -0.21373,-0.4585 l 0,0 z"
       style="font-size:56px;font-style:normal;font-variant:normal;font-weight:normal;font-stretch:normal;text-align:start;line-height:100%;writing-mode:lr-tb;text-anchor:start;fill:#000000;fill-opacity:1;stroke:none;font-family:Verdana;-inkscape-font-specification:Verdana" />
    <path
       style="fill:#000000;fill-opacity:1;fill-rule:evenodd;stroke:none;stroke-width:2.29999995;stroke-linecap:butt;stroke-linejoin:miter;stroke-miterlimit:4;stroke-dasharray:none;stroke-opacity:1"
       d="M 406.06863,573.38527 C 406.06862,627.2848 406.06863,654.24146 406.06863,667.71635 C 406.06863,674.45379 406.06863,677.82689 406.06863,679.51125 C 406.06863,680.35343 406.06863,680.76451 406.06863,680.97506 C 406.06863,681.08034 406.06863,681.11764 406.06863,681.14396 C 406.06863,681.15712 406.06863,681.16882 406.06863,681.17211 L 407.11019,681.17211 L 408.15174,681.17211 C 408.15174,681.17211 408.15173,681.18432 408.15174,573.38527 L 406.06863,573.38527 z"
       id="path3482" />
    <path
       inkscape:connector-curvature="0"
       id="path3484"
       d="m 406.35015,679.56758 0,2.05496 c 24.5668,1e-5 36.84355,0 42.98525,0 3.07085,0 4.60896,0 5.37667,0 0.38386,0 0.57964,0 0.6756,0 0.048,0 0.0724,0 0.0844,0 l 0,-1.0134 0,-1.04156 c 0,0 0.0116,10e-6 -49.12197,0 z"
       style="fill:#000000;fill-opacity:1;fill-rule:evenodd;stroke:none" />
    <path
       inkscape:connector-curvature="0"
       id="path8143"
       style="font-size:12px;fill-rule:evenodd;stroke-width:0.625;stroke-linejoin:round"
       d="m 433.32377,671.40645 24.90044,9.15653 -24.90044,9.15652 c 3.97805,-5.406 3.95512,-12.80236 0,-18.31305 z" />
    <rect
       style="fill:#000000;fill-opacity:1;stroke:#000000;stroke-width:2.5;stroke-linecap:round;stroke-linejoin:round;stroke-miterlimit:4;stroke-opacity:1;stroke-dasharray:none;stroke-dashoffset:0"
       id="rect3494"
       width="192.88271"
       height="61.829777"
       x="463.71112"
       y="651.93958" />
    <rect
       style="fill:#ff7f2a;fill-opacity:1;stroke:#000000;stroke-width:2.5;stroke-linecap:round;stroke-linejoin:round;stroke-miterlimit:4;stroke-opacity:1;stroke-dasharray:none;stroke-dashoffset:0"
       id="rect3496"
       width="192.88271"
       height="61.829777"
       x="458.13901"
       y="647.02124" />
    <path
       style="font-size:56px;font-style:normal;font-variant:normal;font-weight:normal;font-stretch:normal;text-align:start;line-height:125%;writing-mode:lr-tb;text-anchor:start;fill:#000000;fill-opacity:1;stroke:none;stroke-width:1px;stroke-linecap:butt;stroke-linejoin:miter;stroke-opacity:1;font-family:Verdana;-inkscape-font-specification:Verdana"
       d="M 493.70468,457.37941 C 493.70465,458.64742 493.48353,459.82256 493.0413,460.90482 C 492.59903,461.98711 491.98053,462.92529 491.18578,463.71938 C 490.19871,464.70561 489.0322,465.44527 487.68624,465.93837 C 486.34025,466.43148 484.64176,466.67803 482.59077,466.67803 L 478.78358,466.67803 L 478.78358,477.3407 L 474.97639,477.3407 L 474.97639,448.734 L 482.74459,448.734 C 484.46229,448.73403 485.91724,448.87812 487.10941,449.16626 C 488.30153,449.45447 489.35908,449.90595 490.28206,450.52072 C 491.37163,451.2508 492.21447,452.16016 492.81057,453.24882 C 493.40661,454.33752 493.70465,455.71438 493.70468,457.37941 L 493.70468,457.37941 z M 489.74366,457.47547 C 489.74364,456.48927 489.57059,455.63113 489.2245,454.90105 C 488.87837,454.17102 488.3528,453.57545 487.64779,453.11434 C 487.03247,452.71732 486.33064,452.43234 485.54229,452.2594 C 484.75393,452.08652 483.75727,452.00006 482.55231,452.00005 L 478.78358,452.00005 L 478.78358,463.43119 L 481.99469,463.43119 C 483.53293,463.43121 484.78277,463.29352 485.74419,463.01814 C 486.70558,462.74277 487.48754,462.3041 488.09004,461.70211 C 488.69251,461.08734 489.11873,460.44053 489.36871,459.7617 C 489.61867,459.08289 489.74364,458.32082 489.74366,457.47547 L 489.74366,457.47547 z"
       id="text3520" />
    <path
       style="font-size:56px;font-style:normal;font-variant:normal;font-weight:normal;font-stretch:normal;text-align:start;line-height:125%;writing-mode:lr-tb;text-anchor:start;fill:#000000;fill-opacity:1;stroke:none;stroke-width:1px;stroke-linecap:butt;stroke-linejoin:miter;stroke-opacity:1;font-family:Verdana;-inkscape-font-specification:Verdana"
       d="M 488.0351,584.3887 L 476.72891,584.3887 L 476.72891,581.46847 L 480.47842,581.46847 L 480.47842,558.70222 L 476.72891,558.70222 L 476.72891,555.782 L 488.0351,555.782 L 488.0351,558.70222 L 484.2856,558.70222 L 484.2856,581.46847 L 488.0351,581.46847 L 488.0351,584.3887 z"
       id="text3543" />
    <path
       inkscape:connector-curvature="0"
       id="text3510"
       d="m 552.58279,689.6568 c -0.19867,0 -0.29802,-0.12683 -0.29801,-0.38048 l 0.13245,-0.52937 c 0.0441,-0.14337 0.13797,-0.21505 0.28146,-0.21505 0.91613,0 1.65566,-0.0689 2.21858,-0.20679 0.56292,-0.13785 0.92717,-0.46043 1.09274,-0.96774 l 4.6524,-18.67665 c 0.0662,-0.1654 0.0993,-0.33083 0.0993,-0.49627 -10e-6,-0.36392 -0.89406,-0.54589 -2.68217,-0.54591 -0.0662,2e-5 -0.12694,-0.0413 -0.18212,-0.12407 -0.0552,-0.0827 -0.0828,-0.16816 -0.0828,-0.25641 l 0.13245,-0.52937 c 0.022,-0.14334 0.149,-0.21503 0.38081,-0.21505 l 8.47697,0 c 0.0772,2e-5 0.14071,0.0359 0.1904,0.10752 0.0496,0.0717 0.0745,0.15167 0.0745,0.23988 l -0.13245,0.52936 c -0.0331,0.16545 -0.12695,0.24816 -0.28146,0.24814 -0.90511,2e-5 -1.63912,0.0689 -2.20203,0.20678 -0.56294,0.13788 -0.92166,0.46046 -1.07618,0.96775 l -2.7815,11.18283 13.39427,-10.4715 c 0.0552,-0.11027 0.16279,-0.23433 0.32286,-0.37221 0.16002,-0.13783 0.28696,-0.27293 0.3808,-0.40529 0.0938,-0.13233 0.14071,-0.29775 0.14073,-0.49629 -2e-5,-0.40802 -0.32563,-0.61205 -0.97684,-0.61207 -0.0773,2e-5 -0.14351,-0.0413 -0.19867,-0.12407 -0.0552,-0.0827 -0.0828,-0.16816 -0.0828,-0.25641 l 0.13245,-0.52937 c 0.022,-0.14334 0.14899,-0.21503 0.38081,-0.21505 l 6.10938,0 c 0.0772,2e-5 0.1407,0.0359 0.1904,0.10752 0.0497,0.0717 0.0745,0.15167 0.0745,0.23988 l -0.13245,0.52936 c -0.0331,0.16545 -0.12696,0.24816 -0.28146,0.24814 -1.55635,2e-5 -3.30583,0.75547 -5.24844,2.26634 -2e-5,2e-5 -0.0166,0.005 -0.0497,0.0165 -0.0331,0.0111 -0.0607,0.0276 -0.0828,0.0496 l -7.05311,5.52524 5.01665,11.96033 c 0.29799,0.49628 0.61257,0.79956 0.94372,0.90985 0.33111,0.11029 0.83884,0.16542 1.5232,0.16542 0.0883,0 0.16279,0.0414 0.22352,0.12407 0.0607,0.0827 0.091,0.15716 0.0911,0.22333 l -0.13245,0.54591 c -0.0552,0.15439 -0.19318,0.2316 -0.41392,0.2316 l -7.2849,0 c -0.20973,0 -0.31459,-0.12683 -0.31457,-0.38049 l 0.13245,-0.52936 c 0.0662,-0.14337 0.16003,-0.21506 0.28146,-0.21506 1.2914,0 1.9371,-0.32533 1.93712,-0.97601 -2e-5,-0.0662 -0.003,-0.12131 -0.008,-0.16543 -0.005,-0.0441 -0.0138,-0.0882 -0.0248,-0.13234 l -4.20538,-10.0083 -5.13254,3.97023 -1.55631,6.26967 c -0.0441,0.22057 -0.0662,0.39151 -0.0662,0.51282 -10e-6,0.35291 0.88301,0.52936 2.64905,0.52936 0.0883,0 0.16004,0.0414 0.21524,0.12407 0.0552,0.0827 0.0828,0.15716 0.0828,0.22333 l -0.13245,0.54591 c -0.0552,0.15439 -0.19317,0.2316 -0.41391,0.2316 l -8.44387,0 z m 28.74816,0.12997 c -0.36859,0 -0.68188,-0.0996 -0.93989,-0.29894 -0.258,-0.19931 -0.45205,-0.45709 -0.58213,-0.77337 -0.1301,-0.31628 -0.19514,-0.65422 -0.19514,-1.01383 0,-0.41593 0.0824,-0.85352 0.24717,-1.31278 0.16478,-0.45925 0.39135,-0.88492 0.6797,-1.27703 0.28837,-0.3921 0.62768,-0.71054 1.01794,-0.95534 0.39026,-0.24479 0.79787,-0.36718 1.22282,-0.36719 0.25584,1e-5 0.48783,0.0769 0.69597,0.23072 0.20813,0.15381 0.36641,0.35636 0.47482,0.60764 l 0.76101,-3.02198 c 0.0434,-0.19497 0.065,-0.31411 0.0651,-0.35744 -10e-6,-0.1603 -0.28403,-0.24045 -0.85208,-0.24047 -0.026,2e-5 -0.0499,-0.0162 -0.0715,-0.0488 -0.0217,-0.0325 -0.0325,-0.0661 -0.0325,-0.10073 l 0.052,-0.20797 c 0.0173,-0.0563 0.0542,-0.0845 0.11057,-0.0845 l 1.74318,-0.14298 c 0.0867,10e-6 0.13008,0.0433 0.13008,0.12998 l -1.91878,7.6817 c -1e-5,0.0563 -0.0152,0.16463 -0.0455,0.32494 -0.0303,0.16031 -0.0455,0.26862 -0.0455,0.32495 -10e-6,0.38993 0.13441,0.58489 0.40327,0.58489 0.19512,0 0.3599,-0.10073 0.49433,-0.30219 0.13442,-0.20147 0.23415,-0.40835 0.2992,-0.62065 0.065,-0.2123 0.13659,-0.48525 0.21464,-0.81886 0.0217,-0.0607 0.0542,-0.091 0.0976,-0.091 l 0.15611,0 c 0.026,0 0.0477,0.013 0.065,0.039 0.0173,0.026 0.026,0.0563 0.026,0.091 -0.14311,0.60223 -0.30789,1.08965 -0.49434,1.46225 -0.18646,0.37261 -0.48349,0.55891 -0.8911,0.55891 -0.2992,0 -0.56046,-0.0888 -0.78377,-0.26645 -0.22332,-0.17764 -0.35666,-0.41593 -0.40002,-0.71488 -0.23416,0.28162 -0.49867,0.51557 -0.79353,0.70188 -0.29488,0.1863 -0.59841,0.27945 -0.91062,0.27945 l 0,0 z m 0.026,-0.31844 c 0.21681,0 0.43254,-0.0617 0.64719,-0.18522 0.21464,-0.12348 0.41086,-0.28053 0.58864,-0.47117 0.17779,-0.19063 0.32956,-0.38344 0.45531,-0.5784 0.009,0 0.013,-0.013 0.013,-0.039 l 0.735,-2.905 c -0.0564,-0.32495 -0.17021,-0.60332 -0.34149,-0.83511 -0.17128,-0.23179 -0.40435,-0.34769 -0.69921,-0.34769 -0.44664,0 -0.83907,0.24912 -1.1773,0.74737 -0.33822,0.49825 -0.59948,1.08099 -0.78377,1.7482 -0.18429,0.66723 -0.27644,1.21963 -0.27644,1.65722 0,0.30761 0.0683,0.58598 0.20489,0.83511 0.13659,0.24912 0.34798,0.37368 0.63418,0.37368 l 0,0 z"
       style="font-size:56px;font-style:normal;font-variant:normal;font-weight:normal;font-stretch:normal;text-align:start;line-height:100%;writing-mode:lr-tb;text-anchor:start;fill:#000000;fill-opacity:1;stroke:none;font-family:Verdana;-inkscape-font-specification:Verdana" />
    <path
       style="font-size:56px;font-style:normal;font-variant:normal;font-weight:normal;font-stretch:normal;text-align:start;line-height:100%;writing-mode:lr-tb;text-anchor:start;fill:#000000;fill-opacity:1;stroke:none;font-family:Verdana;-inkscape-font-specification:Verdana"
       d="m 597.42186,672.83244 c -0.60788,0 -1.12458,-0.16435 -1.5501,-0.49304 -0.42552,-0.32869 -0.74555,-0.75385 -0.96009,-1.27548 -0.21455,-0.52162 -0.32182,-1.07897 -0.32182,-1.67205 0,-0.68596 0.13588,-1.40766 0.40764,-2.16509 0.27175,-0.75742 0.64542,-1.45947 1.121,-2.10615 0.47558,-0.64666 1.03518,-1.17185 1.67883,-1.57558 0.64363,-0.40372 1.31588,-0.60558 2.01673,-0.60559 0.42194,10e-6 0.80455,0.12684 1.14783,0.3805 0.34326,0.25368 0.6043,0.58773 0.78309,1.00216 l 1.2551,-4.984 c 0.0715,-0.32154 0.10726,-0.51804 0.10727,-0.58951 -10e-6,-0.26437 -0.46843,-0.39656 -1.40528,-0.39657 -0.0429,10e-6 -0.0822,-0.0268 -0.118,-0.0804 -0.0358,-0.0536 -0.0536,-0.10896 -0.0536,-0.16613 l 0.0858,-0.34299 c 0.0286,-0.0929 0.0894,-0.13932 0.18237,-0.13934 l 2.87492,-0.2358 c 0.14302,2e-5 0.21454,0.0715 0.21455,0.21437 l -3.16456,12.66901 c -10e-6,0.0929 -0.025,0.27153 -0.0751,0.53591 -0.0501,0.26439 -0.0751,0.44303 -0.0751,0.53592 -10e-6,0.6431 0.22169,0.96465 0.66509,0.96465 0.32181,0 0.59357,-0.16614 0.81527,-0.49841 0.22169,-0.33226 0.38618,-0.67346 0.49346,-1.02359 0.10727,-0.35013 0.22527,-0.8003 0.354,-1.35051 0.0357,-0.10003 0.0894,-0.15005 0.16092,-0.15005 l 0.25745,0 c 0.0429,0 0.0787,0.0214 0.10727,0.0643 0.0286,0.0429 0.0429,0.0929 0.0429,0.15006 -0.23601,0.99322 -0.50777,1.79709 -0.81528,2.41161 -0.30752,0.61451 -0.7974,0.92177 -1.46964,0.92177 -0.49346,0 -0.92434,-0.14648 -1.29264,-0.43945 -0.36831,-0.29297 -0.58822,-0.68597 -0.65973,-1.17901 -0.38619,0.46446 -0.82243,0.85032 -1.30873,1.15757 -0.48631,0.30726 -0.98692,0.46089 -1.50183,0.46089 l 0,0 z m 0.0429,-0.52519 c 0.35758,0 0.71336,-0.10183 1.06737,-0.30548 0.35399,-0.20364 0.6776,-0.46267 0.97082,-0.77707 0.29321,-0.3144 0.54351,-0.63238 0.75092,-0.95393 0.0143,0 0.0215,-0.0214 0.0215,-0.0643 l 1.21219,-4.79107 c -0.093,-0.53591 -0.28071,-0.99501 -0.56319,-1.3773 -0.28249,-0.38228 -0.66689,-0.57342 -1.15319,-0.57343 -0.73661,10e-6 -1.38383,0.41087 -1.94164,1.2326 -0.55783,0.82175 -0.98871,1.78282 -1.29264,2.88322 -0.30395,1.10042 -0.45592,2.01147 -0.45591,2.73316 -10e-6,0.50734 0.11263,0.96644 0.3379,1.3773 0.22528,0.41087 0.57391,0.61631 1.04592,0.61631 l 0,0 z m 11.70351,0.52519 c -1.02983,0 -1.83616,-0.38407 -2.41901,-1.15221 -0.58285,-0.76815 -0.87428,-1.68456 -0.87428,-2.74924 0,-1.02896 0.25209,-2.00432 0.75628,-2.9261 0.50418,-0.92176 1.19251,-1.66311 2.06501,-2.22404 0.87248,-0.56092 1.82006,-0.84138 2.84274,-0.84139 0.62217,10e-6 1.15854,0.16436 1.60909,0.49304 0.45055,0.32871 0.67582,0.78602 0.67583,1.37194 -10e-6,1.19331 -0.59001,1.95253 -1.77001,2.27764 -1.18001,0.32513 -2.60317,0.48769 -4.26947,0.48768 l -0.0429,0 c -0.21454,0.86462 -0.33254,1.61847 -0.354,2.26156 0,0.65739 0.15197,1.23439 0.45592,1.73101 0.30393,0.49661 0.75984,0.74492 1.36773,0.74492 0.86533,0 1.69491,-0.20723 2.48874,-0.62167 0.79381,-0.41444 1.45175,-0.97536 1.97383,-1.68277 0.0143,-0.0286 0.0572,-0.0429 0.12872,-0.0429 0.0787,0 0.15018,0.0358 0.21455,0.10718 0.0644,0.0715 0.0965,0.13934 0.0965,0.20365 0,0.0429 -0.007,0.0715 -0.0215,0.0858 -0.37188,0.50733 -0.81528,0.94678 -1.33018,1.31835 -0.51492,0.37156 -1.07989,0.65738 -1.69492,0.85746 -0.61504,0.20007 -1.24795,0.30011 -1.89874,0.30011 l 0,0 z m -1.29801,-5.78787 c 0.85819,0 1.64485,-0.0375 2.36001,-0.11254 0.71515,-0.075 1.36594,-0.27868 1.95238,-0.61095 0.58642,-0.33226 0.87963,-0.8378 0.87964,-1.51664 -1e-5,-0.25723 -0.0733,-0.48945 -0.21991,-0.69668 -0.14662,-0.20721 -0.33792,-0.3662 -0.57391,-0.47697 -0.23601,-0.11075 -0.49347,-0.16612 -0.77237,-0.16613 -0.92256,10e-6 -1.68956,0.34835 -2.30101,1.04503 -0.61146,0.6967 -1.05307,1.54166 -1.32483,2.53488 l 0,0 z m 12.7977,11.03983 c -1.04413,-0.9575 -1.81114,-2.12937 -2.30101,-3.5156 -0.48989,-1.38623 -0.73483,-2.86892 -0.73482,-4.44809 -1e-5,-1.32191 0.14303,-2.64384 0.42909,-3.96576 0.28606,-1.32192 0.708,-2.59918 1.26582,-3.83179 0.55782,-1.23259 1.25509,-2.37587 2.09183,-3.42985 0.83673,-1.05395 1.78788,-1.9525 2.85347,-2.69565 0.0286,-0.0286 0.0643,-0.0429 0.10727,-0.0429 l 0.21455,0 c 0.10726,10e-6 0.1609,0.0572 0.16091,0.17149 -10e-6,0.0715 -0.025,0.11792 -0.0751,0.13934 -0.97261,0.80746 -1.82722,1.76317 -2.56382,2.86714 -0.73662,1.104 -1.34629,2.29908 -1.82901,3.58527 -0.48274,1.2862 -0.84389,2.5974 -1.08346,3.93361 -0.23958,1.33621 -0.35937,2.65099 -0.35937,3.94433 0,3.00112 0.74734,5.34127 2.24201,7.02048 0.0429,0.0429 0.0644,0.0893 0.0644,0.13933 -10e-6,0.11433 -0.0536,0.17149 -0.16091,0.17149 l -0.21455,0 c -0.0429,0 -0.0787,-0.0143 -0.10727,-0.0429 l 0,0 z m 3.86183,-7.22412 c 0,-0.16435 0.0286,-0.37514 0.0858,-0.63238 l 1.57692,-6.34523 -2.32783,0 c -0.0429,1e-5 -0.0822,-0.0268 -0.118,-0.0804 -0.0357,-0.0536 -0.0536,-0.10896 -0.0536,-0.16613 l 0.0858,-0.34299 c 0.0286,-0.0929 0.0894,-0.13932 0.18236,-0.13933 l 2.41365,0 0.9011,-3.57991 c 0.0572,-0.20006 0.16269,-0.36262 0.31645,-0.48768 0.15376,-0.12503 0.33433,-0.18756 0.54173,-0.18757 0.16448,10e-6 0.30751,0.0518 0.4291,0.15541 0.12157,0.10363 0.18236,0.24118 0.18236,0.41266 0,0.0929 -0.007,0.15364 -0.0215,0.18221 l -0.87964,3.50488 2.28492,0 c 0.0501,10e-6 0.0912,0.0233 0.12337,0.0697 0.0322,0.0465 0.0483,0.0983 0.0483,0.15541 l -0.0858,0.35371 c -10e-6,0.10004 -0.0572,0.15006 -0.17164,0.15005 l -2.37073,0 -1.6091,6.40954 c -0.10013,0.41444 -0.15019,0.76457 -0.15018,1.05039 -10e-6,0.6431 0.21811,0.96465 0.65436,0.96465 0.45054,0 0.86355,-0.15185 1.23901,-0.45553 0.37545,-0.30369 0.69548,-0.67704 0.96009,-1.12006 0.2646,-0.44302 0.4863,-0.89676 0.6651,-1.36123 0.0286,-0.0572 0.0715,-0.0857 0.12872,-0.0857 l 0.25746,0 c 0.10727,0 0.1609,0.0715 0.16091,0.21437 -0.33613,0.8789 -0.7974,1.65418 -1.38383,2.32586 -0.58643,0.67168 -1.27655,1.00752 -2.07037,1.00752 -0.56497,0 -1.03876,-0.18757 -1.42137,-0.56271 -0.38261,-0.37514 -0.57391,-0.84496 -0.57391,-1.40945 l 0,0 z m 6.92985,7.26699 c -0.10012,0 -0.15018,-0.0572 -0.15018,-0.17149 0,-0.0786 0.0143,-0.12505 0.0429,-0.13933 0.98691,-0.8146 1.85225,-1.78282 2.59601,-2.90466 0.74376,-1.12185 1.35343,-2.31336 1.82901,-3.57455 0.47557,-1.26118 0.83136,-2.55452 1.06737,-3.88002 0.23599,-1.32549 0.35399,-2.64919 0.354,-3.97113 -10e-6,-0.8503 -0.0715,-1.69705 -0.21454,-2.54023 -0.14304,-0.84316 -0.38262,-1.64881 -0.71874,-2.41697 -0.33612,-0.76813 -0.77237,-1.45589 -1.30873,-2.06327 -0.0286,-0.0571 -0.0429,-0.1036 -0.0429,-0.13934 0,-0.11431 0.0501,-0.17148 0.15018,-0.17149 l 0.21455,0 c 0.0357,10e-6 0.0679,0.0143 0.0965,0.0429 0.70084,0.65026 1.27833,1.40411 1.73246,2.26156 0.45411,0.85748 0.78308,1.76496 0.98691,2.72245 0.20382,0.9575 0.30572,1.95431 0.30573,2.9904 -10e-6,1.76495 -0.25388,3.52632 -0.76164,5.28411 -0.50776,1.7578 -1.26046,3.38698 -2.2581,4.88754 -0.99764,1.50056 -2.20089,2.74745 -3.60975,3.74068 -0.0286,0.0286 -0.0608,0.0429 -0.0965,0.0429 l -0.21455,0 z"
       id="text3551"
       inkscape:connector-curvature="0" />
    <path
       style="fill:none;stroke:#000000;stroke-width:1.39999962;stroke-linecap:butt;stroke-linejoin:miter;stroke-miterlimit:4;stroke-opacity:1;stroke-dasharray:none"
       d="m 592.819,680.06575 46.19966,0"
       id="path3555"
       inkscape:connector-curvature="0" />
    <path
       style="font-size:56px;font-style:normal;font-variant:normal;font-weight:normal;font-stretch:normal;text-align:start;line-height:100%;writing-mode:lr-tb;text-anchor:start;fill:#000000;fill-opacity:1;stroke:none;font-family:Verdana;-inkscape-font-specification:Verdana"
       d="m 609.09013,699.15579 c -0.60789,0 -1.12459,-0.16435 -1.5501,-0.49304 -0.42552,-0.3287 -0.74555,-0.75386 -0.96009,-1.27548 -0.21455,-0.52162 -0.32182,-1.07897 -0.32182,-1.67206 0,-0.68596 0.13587,-1.40766 0.40763,-2.16509 0.27176,-0.75742 0.64543,-1.45946 1.12101,-2.10614 0.47557,-0.64666 1.03518,-1.17186 1.67883,-1.57559 0.64363,-0.40371 1.31587,-0.60557 2.01673,-0.60558 0.42194,1e-5 0.80454,0.12684 1.14783,0.3805 0.34326,0.25367 0.60429,0.58773 0.78309,1.00216 l 1.2551,-4.984 c 0.0715,-0.32154 0.10726,-0.51804 0.10727,-0.58951 -10e-6,-0.26437 -0.46844,-0.39656 -1.40528,-0.39658 -0.0429,2e-5 -0.0822,-0.0268 -0.118,-0.0804 -0.0358,-0.0536 -0.0537,-0.10895 -0.0536,-0.16613 l 0.0858,-0.34298 c 0.0286,-0.0929 0.0894,-0.13932 0.18237,-0.13934 l 2.87492,-0.23581 c 0.14302,2e-5 0.21453,0.0715 0.21455,0.21437 l -3.16457,12.66902 c 0,0.0929 -0.025,0.27153 -0.0751,0.53591 -0.0501,0.26439 -0.0751,0.44302 -0.0751,0.53592 -10e-6,0.64309 0.22169,0.96464 0.6651,0.96464 0.32181,0 0.59357,-0.16613 0.81527,-0.4984 0.22169,-0.33226 0.38618,-0.67347 0.49346,-1.0236 0.10726,-0.35012 0.22526,-0.80029 0.354,-1.3505 0.0357,-0.10003 0.0894,-0.15005 0.16091,-0.15006 l 0.25746,0 c 0.0429,10e-6 0.0787,0.0214 0.10727,0.0643 0.0286,0.0429 0.0429,0.0929 0.0429,0.15006 -0.23601,0.99323 -0.50777,1.7971 -0.81528,2.41162 -0.30752,0.61451 -0.7974,0.92177 -1.46964,0.92177 -0.49347,0 -0.92435,-0.14649 -1.29264,-0.43945 -0.36831,-0.29297 -0.58822,-0.68597 -0.65973,-1.17902 -0.38619,0.46447 -0.82244,0.85032 -1.30874,1.15758 -0.48631,0.30726 -0.98691,0.46089 -1.50182,0.46089 l 0,0 z m 0.0429,-0.5252 c 0.35757,0 0.71336,-0.10182 1.06737,-0.30547 0.35399,-0.20365 0.6776,-0.46267 0.97082,-0.77707 0.29321,-0.31441 0.54351,-0.63238 0.75091,-0.95393 0.0143,0 0.0215,-0.0214 0.0215,-0.0643 l 1.21219,-4.79108 c -0.093,-0.5359 -0.28071,-0.995 -0.56319,-1.3773 -0.28249,-0.38228 -0.66688,-0.57342 -1.15318,-0.57343 -0.73662,10e-6 -1.38383,0.41088 -1.94165,1.23261 -0.55782,0.82174 -0.9887,1.78281 -1.29264,2.88322 -0.30395,1.10041 -0.45592,2.01146 -0.45591,2.73316 -1e-5,0.50733 0.11263,0.96643 0.33791,1.3773 0.22527,0.41087 0.57391,0.6163 1.04591,0.6163 l 0,0 z m 8.74277,-1.44697 c 0,-0.16434 0.0286,-0.37514 0.0858,-0.63238 l 1.57692,-6.34522 -2.32783,0 c -0.0429,1e-5 -0.0822,-0.0268 -0.118,-0.0804 -0.0357,-0.0536 -0.0536,-0.10896 -0.0536,-0.16613 l 0.0858,-0.34299 c 0.0286,-0.0929 0.0894,-0.13932 0.18237,-0.13934 l 2.41364,0 0.9011,-3.5799 c 0.0572,-0.20006 0.16269,-0.36263 0.31646,-0.48769 0.15375,-0.12503 0.33433,-0.18755 0.54173,-0.18757 0.16448,2e-5 0.30751,0.0518 0.42909,0.15542 0.12157,0.10362 0.18236,0.24118 0.18236,0.41265 0,0.0929 -0.007,0.15364 -0.0215,0.18222 l -0.87964,3.50487 2.28492,0 c 0.0501,2e-5 0.0912,0.0232 0.12336,0.0697 0.0322,0.0465 0.0483,0.0983 0.0483,0.15542 l -0.0858,0.3537 c -10e-6,0.10005 -0.0572,0.15007 -0.17164,0.15006 l -2.37074,0 -1.60909,6.40953 c -0.10013,0.41445 -0.15019,0.76457 -0.15019,1.0504 0,0.64309 0.21812,0.96464 0.65437,0.96464 0.45054,0 0.86354,-0.15184 1.239,-0.45552 0.37545,-0.30369 0.69549,-0.67704 0.9601,-1.12007 0.2646,-0.44302 0.4863,-0.89676 0.66509,-1.36122 0.0286,-0.0572 0.0715,-0.0857 0.12873,-0.0857 l 0.25746,0 c 0.10726,10e-6 0.1609,0.0715 0.16091,0.21437 -0.33613,0.8789 -0.79741,1.65419 -1.38383,2.32587 -0.58643,0.67168 -1.27655,1.00752 -2.07037,1.00752 -0.56497,0 -1.03877,-0.18757 -1.42137,-0.56271 -0.38261,-0.37514 -0.57391,-0.84496 -0.57391,-1.40946 l 0,0 z"
       id="text3557"
       inkscape:connector-curvature="0" />
    <path
       style="font-size:56px;font-style:normal;font-variant:normal;font-weight:normal;font-stretch:normal;text-align:start;line-height:125%;writing-mode:lr-tb;text-anchor:start;fill:#000000;fill-opacity:1;stroke:none;stroke-width:1px;stroke-linecap:butt;stroke-linejoin:miter;stroke-opacity:1;font-family:Verdana;-inkscape-font-specification:Verdana"
       d="M 497.20696,678.01005 C 497.20693,680.61009 496.6397,682.96676 495.50526,685.08008 C 494.37077,687.1934 492.86135,688.83283 490.97702,689.99835 C 489.66947,690.80526 488.21134,691.38803 486.6026,691.74665 C 484.99382,692.10528 482.87551,692.28459 480.24767,692.28459 L 473.01786,692.28459 L 473.01786,663.67788 L 480.17076,663.67788 C 482.96525,663.67791 485.18611,663.87964 486.83334,664.28306 C 488.48054,664.68654 489.87458,665.24049 491.01547,665.9449 C 492.9639,667.16169 494.48294,668.7819 495.57256,670.80554 C 496.66213,672.82923 497.20693,675.23072 497.20696,678.01005 L 497.20696,678.01005 z M 493.22671,677.95242 C 493.22669,675.71103 492.83572,673.82185 492.0538,672.28487 C 491.27182,670.74792 490.10532,669.53758 488.55426,668.65379 C 487.42619,668.01342 486.22763,667.56835 484.95858,667.31855 C 483.6895,667.06883 482.17048,666.94395 480.4015,666.94393 L 476.82505,666.94393 L 476.82505,689.01855 L 480.4015,689.01855 C 482.23457,689.01855 483.83372,688.88406 485.19894,688.61508 C 486.56412,688.34612 487.81716,687.84662 488.95805,687.11655 C 490.38092,686.20718 491.44809,685.00964 492.15956,683.5239 C 492.87098,682.03819 493.22669,680.18102 493.22671,677.95242 L 493.22671,677.95242 z"
       id="text3574" />
    <path
       sodipodi:type="arc"
       style="fill:#00000f;fill-opacity:0.94117647;stroke:#000000;stroke-width:9.51715279;stroke-linecap:round;stroke-linejoin:round;stroke-miterlimit:4;stroke-opacity:1;stroke-dasharray:none;stroke-dashoffset:0"
       id="path3582"
       sodipodi:cx="217.44653"
       sodipodi:cy="268.04639"
       sodipodi:rx="100.55331"
       sodipodi:ry="100.55331"
       d="m 317.99984,268.04639 c 0,55.53405 -45.01925,100.5533 -100.55331,100.5533 -55.53405,0 -100.5533,-45.01925 -100.5533,-100.5533 0,-55.53406 45.01925,-100.55331 100.5533,-100.55331 55.53406,0 100.55331,45.01925 100.55331,100.55331 z"
       transform="matrix(0.34961644,0,0,0.34932201,673.19806,480.80201)" />
    <path
       sodipodi:type="arc"
       style="fill:#ffdd55;fill-opacity:1;stroke:#000000;stroke-width:9.51715279;stroke-linecap:round;stroke-linejoin:round;stroke-miterlimit:4;stroke-opacity:1;stroke-dasharray:none;stroke-dashoffset:0"
       id="path3584"
       sodipodi:cx="217.44653"
       sodipodi:cy="268.04639"
       sodipodi:rx="100.55331"
       sodipodi:ry="100.55331"
       d="m 317.99984,268.04639 c 0,55.53405 -45.01925,100.5533 -100.55331,100.5533 -55.53405,0 -100.5533,-45.01925 -100.5533,-100.5533 0,-55.53406 45.01925,-100.55331 100.5533,-100.55331 55.53406,0 100.55331,45.01925 100.55331,100.55331 z"
       transform="matrix(0.34961644,0,0,0.34932201,671.14182,479.12582)" />
    <path
       style="font-size:56px;font-style:normal;font-variant:normal;font-weight:normal;font-stretch:normal;text-align:start;line-height:100%;writing-mode:lr-tb;text-anchor:start;fill:#000000;fill-opacity:1;stroke:none;stroke-width:1px;stroke-linecap:butt;stroke-linejoin:miter;stroke-opacity:1;font-family:Verdana;-inkscape-font-specification:Verdana"
       d="M 750.98711,572.20359 C 751.02587,572.2811 751.01294,572.3586 750.94832,572.43608 L 738.59647,587.23807 L 755.67961,587.23807 C 755.7313,587.23807 755.77658,587.22516 755.8154,587.19933 C 755.85414,587.17349 755.87356,587.13473 755.87356,587.08307 L 756.78491,583.07259 C 756.78491,583.04676 756.80425,583.01447 756.84306,582.97572 C 756.88181,582.93697 756.94004,582.9176 757.0176,582.9176 L 758.18105,582.9176 C 758.3361,582.9176 758.41367,582.98218 758.41373,583.11135 L 758.41373,590.04736 C 758.41367,590.18942 758.3361,590.26046 758.18105,590.26047 L 734.50503,590.26047 C 734.37577,590.26046 734.31114,590.18942 734.31114,590.04736 L 734.31114,589.253 C 734.31114,589.20134 734.32406,589.16259 734.34991,589.13675 L 747.26409,573.61792 C 747.31579,573.54043 747.31579,573.46292 747.26409,573.38542 L 734.9898,556.76225 C 734.9898,556.73643 734.98334,556.71707 734.97042,556.70412 C 734.95748,556.69123 734.95102,556.67186 734.95102,556.64599 L 734.95102,555.8129 C 734.95102,555.68376 735.01565,555.61918 735.14493,555.61916 L 757.30844,555.61916 C 757.46357,555.61918 757.54113,555.68376 757.54113,555.8129 L 757.54113,562.03206 C 757.54113,562.17416 757.46357,562.2452 757.30844,562.24518 L 756.22255,562.24518 C 756.145,562.2452 756.08684,562.23228 756.04809,562.20643 C 756.00927,562.18062 755.98987,562.14187 755.98987,562.09019 L 754.80708,557.59534 C 754.807,557.5437 754.78767,557.50495 754.74892,557.47908 C 754.7101,557.45328 754.67776,557.44037 754.65195,557.44035 L 740.03138,557.44035 L 750.98711,572.20359 L 750.98711,572.20359 z"
       id="path3586" />
    <path
       style="fill:#000000;fill-opacity:1;fill-rule:evenodd;stroke:none;stroke-width:2.29999948;stroke-linecap:butt;stroke-linejoin:miter;stroke-miterlimit:4;stroke-dasharray:none;stroke-opacity:1"
       d="M 655.4506,462.98048 L 655.4506,465.06359 C 701.80482,465.06359 725.00441,465.06359 736.59297,465.06359 C 742.38725,465.06359 745.28012,465.06359 746.72868,465.06359 C 747.45296,465.06359 747.82165,465.06359 748.00273,465.06359 C 748.09327,465.06359 748.12166,465.06359 748.14429,465.06359 C 748.1556,465.06359 748.16977,465.06359 748.1726,465.06359 L 748.1726,464.02203 L 748.1726,462.98048 C 748.1726,462.98048 748.15902,462.98049 655.4506,462.98048 z"
       id="path3588" />
    <path
       style="font-size:56px;font-style:normal;font-variant:normal;font-weight:normal;font-stretch:normal;text-align:start;line-height:100%;writing-mode:lr-tb;text-anchor:start;fill:#000000;fill-opacity:1;stroke:none;stroke-width:1px;stroke-linecap:butt;stroke-linejoin:miter;stroke-opacity:1;font-family:Verdana;-inkscape-font-specification:Verdana"
       d="M 345.56316,560.7785 C 344.06886,560.7785 342.89883,560.2212 342.0531,559.1066 C 341.20736,557.99201 340.7845,556.66226 340.7845,555.11736 C 340.7845,553.62433 341.15029,552.20904 341.88188,550.87151 C 342.61346,549.53399 343.61226,548.45828 344.87828,547.64435 C 346.14427,546.83044 347.51925,546.42348 349.00318,546.42346 C 349.90599,546.42348 350.68427,546.66195 351.33804,547.13889 C 351.99179,547.61585 352.31867,548.27942 352.31867,549.12961 C 352.31867,550.86115 351.46256,551.96278 349.75034,552.43454 C 348.0381,552.90631 345.97306,553.14219 343.55519,553.14218 L 343.49293,553.14218 C 343.18161,554.39677 343.01038,555.49063 342.97926,556.42378 C 342.97925,557.37768 343.19977,558.21492 343.6408,558.93552 C 344.08182,559.65613 344.74337,560.01643 345.62543,560.01642 C 346.88106,560.01643 348.0848,559.71574 349.23667,559.11438 C 350.38852,558.51302 351.34322,557.6991 352.10076,556.67262 C 352.12149,556.63116 352.18377,556.61041 352.28755,556.61041 C 352.40168,556.61041 352.50545,556.66226 352.59886,556.76594 C 352.69224,556.86963 352.73894,556.96813 352.73895,557.06144 C 352.73894,557.12365 352.72856,557.16513 352.70782,557.18586 C 352.1682,557.92202 351.52481,558.55968 350.77768,559.09883 C 350.03051,559.63799 349.21072,560.05272 348.31829,560.34304 C 347.42585,560.63335 346.50748,560.7785 345.56316,560.7785 L 345.56316,560.7785 z M 343.67972,552.38011 C 344.92496,552.38012 346.06645,552.32568 347.10417,552.2168 C 348.14187,552.10795 349.08619,551.81245 349.93713,551.33031 C 350.78804,550.84818 351.2135,550.11462 351.21351,549.12961 C 351.2135,548.75636 351.10714,548.41939 350.89441,548.11869 C 350.68168,547.81803 350.40408,547.58734 350.06165,547.42661 C 349.7192,547.26591 349.34562,547.18556 348.94093,547.18554 C 347.60226,547.18556 346.48932,547.69102 345.60208,548.70192 C 344.71483,549.71286 344.07404,550.93891 343.67972,552.38011 L 343.67972,552.38011 z M 362.24959,568.39927 C 360.73453,567.00991 359.62158,565.30949 358.91075,563.29803 C 358.19991,561.28656 357.8445,559.13512 357.8445,556.8437 C 357.8445,554.92556 358.05204,553.0074 358.46713,551.08925 C 358.88221,549.1711 359.49446,547.31775 360.30388,545.52919 C 361.11328,543.74067 362.12507,542.08172 363.33919,540.55236 C 364.55331,539.02305 365.93347,537.71923 367.47967,536.64088 C 367.52116,536.59944 367.57305,536.5787 367.63532,536.57867 L 367.94664,536.57867 C 368.10228,536.5787 368.18011,536.66165 368.18012,536.82752 C 368.18011,536.93122 368.14379,536.99862 368.07117,537.02971 C 366.65986,538.20135 365.41979,539.58812 364.35096,541.19001 C 363.28211,542.79196 362.39745,544.52606 361.69701,546.39237 C 360.99655,548.25869 360.4725,550.16128 360.12488,552.10017 C 359.77724,554.03906 359.60342,555.94684 359.60343,557.82352 C 359.60342,562.17825 360.68783,565.57388 362.85666,568.01046 C 362.91891,568.07267 362.95004,568.14005 362.95005,568.21264 C 362.95004,568.37853 362.87221,568.46147 362.71656,568.46149 L 362.40524,568.46149 C 362.34298,568.46147 362.2911,568.44074 362.24959,568.39927 L 362.24959,568.39927 z M 367.85324,557.91683 C 367.85324,557.67836 367.89474,557.37249 367.97777,556.99923 L 370.26593,547.7921 L 366.88817,547.7921 C 366.8259,547.79211 366.76884,547.75323 366.71694,547.67545 C 366.66507,547.5977 366.63912,547.51734 366.63912,547.43438 L 366.76365,546.9367 C 366.80516,546.80193 366.89336,546.73454 367.02826,546.73452 L 370.53054,546.73452 L 371.83807,541.53995 C 371.92108,541.24966 372.07414,541.01377 372.29725,540.83231 C 372.52035,540.65088 372.78238,540.56016 373.08332,540.56014 C 373.32199,540.56016 373.52954,540.63534 373.70595,540.78565 C 373.88235,540.93602 373.97056,541.13561 373.97057,541.38443 C 373.97056,541.51923 373.96018,541.60737 373.93944,541.64882 L 372.66304,546.73452 L 375.97854,546.73452 C 376.05117,546.73454 376.11083,546.76823 376.15754,546.83561 C 376.20423,546.90302 376.22758,546.97819 376.22759,547.06112 L 376.10307,547.57436 C 376.10305,547.71953 376.02004,547.79211 375.85402,547.7921 L 372.414,547.7921 L 370.07914,557.09255 C 369.93386,557.69391 369.86122,558.20196 369.86122,558.6167 C 369.86122,559.54985 370.17772,560.01643 370.81073,560.01642 C 371.46449,560.01643 372.06376,559.7961 372.60857,559.35545 C 373.15336,558.91479 373.61773,558.37304 374.0017,557.7302 C 374.38564,557.08736 374.70734,556.42897 374.96677,555.75502 C 375.00827,555.67208 375.07053,555.6306 375.15356,555.6306 L 375.52713,555.6306 C 375.68278,555.6306 375.76061,555.73429 375.76062,555.94165 C 375.27289,557.21697 374.60356,558.34194 373.75265,559.31656 C 372.90171,560.29119 371.90032,560.7785 370.74847,560.7785 C 369.92867,560.7785 369.24119,560.50633 368.68601,559.962 C 368.13083,559.41765 367.85324,558.73593 367.85324,557.91683 L 367.85324,557.91683 z M 377.90869,568.46149 C 377.7634,568.46147 377.69076,568.37853 377.69076,568.21264 C 377.69076,568.09858 377.71153,568.03119 377.75303,568.01046 C 379.18507,566.82846 380.4407,565.42354 381.51993,563.79571 C 382.59915,562.16787 383.4838,560.43895 384.17388,558.60892 C 384.86396,556.7789 385.38022,554.90223 385.72267,552.97888 C 386.0651,551.05556 386.23632,549.13481 386.23634,547.21665 C 386.23632,545.98282 386.13255,544.75417 385.92502,543.53068 C 385.71747,542.30723 385.36984,541.1382 384.88213,540.02358 C 384.39439,538.909 383.76139,537.91103 382.9831,537.02971 C 382.9416,536.94678 382.92084,536.87939 382.92084,536.82752 C 382.92084,536.66165 382.99347,536.5787 383.13876,536.57867 L 383.45008,536.57867 C 383.50195,536.5787 383.54866,536.59944 383.59017,536.64088 C 384.60712,537.58444 385.44507,538.6783 386.10403,539.92248 C 386.76297,541.16671 387.24031,542.4835 387.53607,543.87284 C 387.83181,545.26223 387.97968,546.70861 387.97969,548.21201 C 387.97968,550.77301 387.6113,553.32883 386.87453,555.87944 C 386.13774,558.43007 385.04556,560.79406 383.59795,562.97142 C 382.15033,565.14878 380.40438,566.95806 378.3601,568.39927 C 378.31859,568.44074 378.27188,568.46147 378.22,568.46149 L 377.90869,568.46149 z"
       id="text3590" />
    <path
       inkscape:connector-curvature="0"
       id="path4632"
       d="m 657.13964,572.5971 0,2.05496 c 26.13997,-10e-6 39.20897,0 45.74396,0 3.2675,0 4.8976,0 5.71448,0 0.40843,0 0.62979,0 0.7319,0 0.0511,0 0.0717,0 0.0844,0 l 0,-1.01341 0,-1.04155 c 0,0 0.005,-2e-5 -52.27479,0 z"
       style="fill:#000000;fill-opacity:1;fill-rule:evenodd;stroke:none" />
    <path
       inkscape:connector-curvature="0"
       id="path8135"
       style="font-size:12px;fill-rule:evenodd;stroke-width:0.625;stroke-linejoin:round"
       d="m 687.2702,564.4339 24.90044,9.15653 -24.90044,9.15652 c 3.97805,-5.406 3.95512,-12.80236 0,-18.31305 z" />
    <path
       style="fill:#000000;fill-opacity:1;fill-rule:evenodd;stroke:none;stroke-width:2.29999948;stroke-linecap:butt;stroke-linejoin:miter;stroke-miterlimit:4;stroke-dasharray:none;stroke-opacity:1"
       d="M 655.0002,680.77801 L 655.0002,682.83297 C 702.00553,682.83297 725.50354,682.83297 737.25487,682.83297 C 743.13054,682.83297 746.08891,682.83297 747.55782,682.83297 C 748.29228,682.83297 748.64096,682.83297 748.82458,682.83297 C 748.91639,682.83297 748.97052,682.83297 748.99348,682.83297 C 749.00495,682.83297 749.01876,682.83297 749.02163,682.83297 L 749.02163,681.79141 L 749.02163,680.77801 C 749.02163,680.77801 749.01085,680.77802 655.0002,680.77801 z"
       id="path4721" />
    <path
       inkscape:connector-curvature="0"
       id="path4723"
       d="m 747.1919,613.25643 c 0,0 0,-0.0173 0,69.18582 l 2.05496,0 c 0,-34.60157 0,-51.88026 0,-60.53065 0,-4.3252 0,-6.49197 0,-7.57327 0,-0.54065 0,-0.80803 0,-0.94319 0,-0.0676 0,-0.12181 0,-0.13871 l -1.0134,0 -1.04156,0 z"
       style="fill:#000000;fill-opacity:1;fill-rule:evenodd;stroke:none" />
    <path
       inkscape:connector-curvature="0"
       id="path8127"
       style="font-size:12px;fill-rule:evenodd;stroke-width:0.625;stroke-linejoin:round"
       d="m 739.02834,635.07924 9.15653,-24.53847 9.15652,24.53847 c -5.40601,-3.92022 -12.80236,-3.89764 -18.31305,0 z" />
    <path
       style="font-size:28px;font-style:normal;font-weight:normal;fill:#000000;fill-opacity:1;stroke:none;stroke-width:1px;stroke-linecap:butt;stroke-linejoin:miter;stroke-opacity:1;font-family:Bitstream Vera Sans"
       d="M 724.17904,534.80818 L 724.17904,528.18827 L 717.60299,528.18827 L 717.60299,525.42174 L 724.17904,525.42174 L 724.17904,518.85123 L 726.98087,518.85123 L 726.98087,525.42174 L 733.55692,525.42174 L 733.55692,528.18827 L 726.98087,528.18827 L 726.98087,534.80818 L 724.17904,534.80818 z"
       id="text7079" />
    <g
       id="g2515">
      <rect
         style="fill:#000000;fill-opacity:1;stroke:#000000;stroke-width:2.49999976;stroke-linecap:round;stroke-linejoin:round;stroke-miterlimit:4;stroke-opacity:1;stroke-dasharray:none;stroke-dashoffset:0"
         id="rect7089"
         width="135.67393"
         height="62.368107"
         x="825.07281"
         y="544.75092" />
      <rect
         y="540.901"
         x="821.21967"
         height="62.368107"
         width="135.67393"
         id="rect7083"
         style="fill:#f2f2f2;fill-opacity:1;stroke:#000000;stroke-width:2.49999976;stroke-linecap:round;stroke-linejoin:round;stroke-miterlimit:4;stroke-opacity:1;stroke-dasharray:none;stroke-dashoffset:0" />
      <text
         xml:space="preserve"
         style="font-size:24px;font-style:normal;font-weight:bold;line-height:87.99999952%;letter-spacing:0px;word-spacing:0px;fill:#000000;fill-opacity:1;stroke:none;font-family:Sans;-inkscape-font-specification:Sans Bold"
         x="835.46851"
         y="569.25275"
         id="text3133"
         sodipodi:linespacing="88%"><tspan
           sodipodi:role="line"
           id="tspan3135"
           x="835.46851"
           y="569.25275"
           style="font-size:24px;font-weight:bold;line-height:87.99999952%;-inkscape-font-specification:Sans Bold">Plant /</tspan><tspan
           sodipodi:role="line"
           x="835.46851"
           y="590.37274"
           style="font-size:24px;font-weight:bold;line-height:87.99999952%;-inkscape-font-specification:Sans Bold"
           id="tspan3137">Process</tspan></text>
    </g>
    <path
       style="fill:#000000;fill-opacity:1;fill-rule:evenodd;stroke:none;stroke-width:2.29999995;stroke-linecap:butt;stroke-linejoin:miter;stroke-miterlimit:4;stroke-dasharray:none;stroke-opacity:1"
       d="M 996.6583,574.70833 C 996.6583,676.09779 996.6583,726.79121 996.6583,752.13858 C 996.6583,764.81226 996.6583,771.15246 996.6583,774.32088 C 996.6583,775.90509 996.6583,776.71169 996.6583,777.10774 C 996.6583,777.30577 996.6583,777.39604 996.6583,777.44554 C 996.6583,777.4703 996.6583,777.4675 996.6583,777.47369 C 996.6583,777.47678 996.6583,777.50107 996.6583,777.50184 L 998.7133,777.50184 C 998.7133,777.50184 998.7133,777.48725 998.7133,574.70833 L 996.6583,574.70833 z"
       id="path7109" />
    <path
       inkscape:connector-curvature="0"
       id="path7634"
       d="m 281.02578,615.10379 c 0,0 10e-6,-0.006 0,162.84849 l 2.08311,0 c 1e-5,-81.42747 0,-122.13908 0,-142.49595 0,-10.17844 0,-15.27442 0,-17.81903 0,-1.2723 0,-1.90579 0,-2.22386 0,-0.15904 0,-0.24174 0,-0.2815 0,-0.0199 0,-0.0231 0,-0.0281 l -2.08311,0 z"
       style="fill:#000000;fill-opacity:1;fill-rule:evenodd;stroke:none" />
    <path
       inkscape:connector-curvature="0"
       id="path8119"
       style="font-size:12px;fill-rule:evenodd;stroke-width:0.625;stroke-linejoin:round"
       d="m 272.87312,637.25442 9.15653,-24.90045 9.15652,24.90045 c -5.40601,-3.97805 -12.80237,-3.95514 -18.31305,0 z" />
    <path
       style="font-size:56px;font-style:normal;font-variant:normal;font-weight:normal;font-stretch:normal;text-align:start;line-height:125%;writing-mode:lr-tb;text-anchor:start;fill:#000000;fill-opacity:1;stroke:none;stroke-width:1px;stroke-linecap:butt;stroke-linejoin:miter;stroke-opacity:1;font-family:Verdana;-inkscape-font-specification:Verdana"
       d="M 262.80399,623.24501 L 250.80559,623.24501 L 250.80559,619.76764 L 262.80399,619.76764 L 262.80399,623.24501 z"
       id="text7640" />
    <path
       inkscape:connector-curvature="0"
       id="path2489"
       d="m 748.10792,533.72806 c 0,0 0,0.0176 0,-70.20642 l -2.05496,0 c 0,35.112 0,52.64558 0,61.42358 0,4.389 0,6.58773 0,7.68499 0,0.54862 0,0.81994 0,0.9571 0,0.0685 0,0.12361 0,0.14075 l 1.0134,0 1.04156,0 z"
       style="fill:#000000;fill-opacity:1;fill-rule:evenodd;stroke:none" />
    <path
       inkscape:connector-curvature="0"
       id="path2491"
       style="font-size:12px;fill-rule:evenodd;stroke-width:0.625;stroke-linejoin:round"
       d="m 756.27148,511.58333 -9.15653,24.90045 -9.15652,-24.90045 c 5.40601,3.97805 12.80237,3.95514 18.31305,0 z" />
    <path
       style="font-size:56px;font-style:normal;font-variant:normal;font-weight:normal;font-stretch:normal;text-align:start;line-height:100%;writing-mode:lr-tb;text-anchor:start;fill:#000000;fill-opacity:1;stroke:none;stroke-width:1px;stroke-linecap:butt;stroke-linejoin:miter;stroke-opacity:1;font-family:Verdana;-inkscape-font-specification:Verdana"
       d="M 567.03766,596.48083 C 566.52496,596.48083 566.15362,596.30139 565.92365,595.9425 C 565.69366,595.58362 565.57867,595.13611 565.57867,594.59998 C 565.57867,594.02869 565.66437,593.40174 565.83575,592.71912 C 566.00714,592.0365 566.24518,591.49305 566.54987,591.08875 C 566.73443,590.84852 566.96075,590.65809 567.22882,590.51746 C 567.49688,590.37684 567.77447,590.30652 568.06158,590.30652 C 568.57135,590.30652 568.94195,590.48816 569.1734,590.85144 C 569.40484,591.21473 569.52056,591.6659 569.52057,592.20496 C 569.52056,592.5741 569.48394,592.9784 569.41071,593.41785 C 569.33746,593.8573 569.22686,594.28211 569.07892,594.69226 C 568.93097,595.10242 568.75445,595.4408 568.54938,595.7074 C 568.3648,595.94177 568.13849,596.12927 567.87042,596.2699 C 567.60235,596.41052 567.32477,596.48083 567.03766,596.48083 L 567.03766,596.48083 z M 567.07281,596.2655 C 567.36871,596.2655 567.617,596.16077 567.81769,595.95129 C 568.01837,595.74182 568.17437,595.48254 568.28571,595.17346 C 568.39703,594.86438 568.4754,594.58753 568.52081,594.3429 C 568.56622,594.09827 568.62555,593.74304 568.69879,593.27722 C 568.82476,592.56238 568.88775,592.01307 568.88776,591.62927 C 568.88775,591.4242 568.85992,591.23963 568.80426,591.07556 C 568.74859,590.9115 568.65557,590.7782 568.52521,590.67566 C 568.39483,590.57313 568.22857,590.52186 568.02643,590.52185 C 567.73639,590.52186 567.49395,590.61634 567.29913,590.8053 C 567.10431,590.99427 566.95196,591.2323 566.8421,591.51941 C 566.73224,591.80652 566.66046,592.04017 566.62677,592.22034 C 566.59308,592.40052 566.53082,592.75281 566.44,593.27722 C 566.37848,593.65808 566.32721,594.00598 566.28619,594.32092 C 566.24518,594.63587 566.22467,594.9032 566.22467,595.12292 C 566.22467,595.32214 566.25104,595.50745 566.30377,595.67883 C 566.3565,595.85022 566.44659,595.99085 566.57404,596.10071 C 566.70148,596.21057 566.86773,596.2655 567.07281,596.2655 L 567.07281,596.2655 z"
       id="text2503" />
    <path
       style="font-size:56px;font-style:normal;font-variant:normal;font-weight:normal;font-stretch:normal;text-align:start;line-height:100%;writing-mode:lr-tb;text-anchor:start;fill:#000000;fill-opacity:1;stroke:none;stroke-width:1px;stroke-linecap:butt;stroke-linejoin:miter;stroke-opacity:1;font-family:Verdana;-inkscape-font-specification:Verdana"
       d="M 568.21692,548.77936 C 568.21692,548.6459 568.22343,548.54498 568.23645,548.47662 L 568.69543,545.71783 L 567.86536,545.71783 L 567.90442,545.47858 C 568.19739,545.47858 568.45536,545.3793 568.67834,545.18073 C 568.90132,544.98216 569.07873,544.73802 569.21057,544.4483 C 569.3424,544.1586 569.43762,543.85749 569.49622,543.54498 L 569.755,543.54498 L 569.44739,545.3858 L 570.83411,545.3858 L 570.77551,545.71783 L 569.39368,545.71783 L 568.92493,548.50592 C 568.9119,548.58405 568.89888,548.70774 568.88586,548.87701 C 568.88586,549.05931 568.92574,549.21474 569.00549,549.34332 C 569.08524,549.4719 569.21138,549.53619 569.38391,549.53619 C 569.58573,549.53619 569.7664,549.43366 569.9259,549.22858 C 569.99751,549.12767 570.04716,549.04466 570.07483,548.97955 C 570.1025,548.91445 570.12935,548.82981 570.1554,548.72565 C 570.18143,548.62148 570.20748,548.53522 570.23352,548.46686 L 570.32629,547.8858 L 570.58508,547.8858 L 570.48743,548.49615 C 570.45813,548.69472 570.38977,548.89655 570.28235,549.10162 C 570.17492,549.3067 570.0382,549.47353 569.87219,549.60211 C 569.70617,549.73069 569.52063,549.79498 569.31555,549.79498 C 568.97701,549.79498 568.70927,549.70791 568.51233,549.53375 C 568.31539,549.3596 568.21692,549.10813 568.21692,548.77936 L 568.21692,548.77936 z"
       id="text2507" />
  </g>
</svg>
